<svg width="40" height="40" viewBox="0 0 40 40" fill="none" xmlns="http://www.w3.org/2000/svg">
<g clip-path="url(#clip0_63_361)">
<path d="M29.7105 2.63609C31.7396 2.63841 33.6849 3.4455 35.1197 4.8803C36.5545 6.31509 37.3616 8.26042 37.3639 10.2895V29.7105C37.362 31.7397 36.5551 33.6853 35.1202 35.1202C33.6853 36.5551 31.7397 37.362 29.7105 37.3639H10.2895C8.26042 37.3616 6.31509 36.5545 4.8803 35.1197C3.4455 33.6849 2.63841 31.7396 2.63609 29.7105V10.2895C2.63841 8.26042 3.4455 6.31509 4.8803 4.8803C6.31509 3.4455 8.26042 2.63841 10.2895 2.63609H29.7105ZM29.7105 0H10.2895C7.56072 0.000465946 4.94381 1.08469 3.01425 3.01425C1.08469 4.94381 0.000465946 7.56072 0 10.2895L0 29.7105C0 32.4394 1.08407 35.0566 3.01373 36.9863C4.94339 38.9159 7.56058 40 10.2895 40H29.7105C32.4394 40 35.0566 38.9159 36.9863 36.9863C38.9159 35.0566 40 32.4394 40 29.7105V10.2895C40 7.56058 38.9159 4.94339 36.9863 3.01373C35.0566 1.08407 32.4394 0 29.7105 0Z" fill="#DDDDDD"/>
<path d="M20.0009 13.5987C21.2671 13.5987 22.5049 13.9742 23.5578 14.6776C24.6106 15.3811 25.4312 16.381 25.9157 17.5508C26.4003 18.7207 26.5271 20.008 26.2801 21.2499C26.033 22.4918 25.4233 23.6325 24.5279 24.5279C23.6326 25.4232 22.4918 26.033 21.2499 26.28C20.008 26.527 18.7207 26.4003 17.5509 25.9157C16.3811 25.4311 15.3812 24.6105 14.6777 23.5577C13.9742 22.5049 13.5987 21.2671 13.5987 20.0009C13.6006 18.3035 14.2757 16.6761 15.4759 15.4759C16.6762 14.2756 18.3035 13.6005 20.0009 13.5987ZM20.0009 10.9626C18.2132 10.9622 16.4656 11.492 14.979 12.485C13.4925 13.4779 12.3337 14.8893 11.6494 16.5408C10.965 18.1923 10.7858 20.0097 11.1343 21.7631C11.4829 23.5164 12.3436 25.127 13.6075 26.3913C14.8715 27.6555 16.4819 28.5164 18.2352 28.8653C19.9885 29.2142 21.8059 29.0353 23.4575 28.3513C25.1092 27.6673 26.5209 26.5088 27.5141 25.0224C28.5073 23.5361 29.0374 21.7885 29.0374 20.0009C29.0369 17.6042 28.0848 15.3058 26.3903 13.611C24.6958 11.9161 22.3976 10.9635 20.0009 10.9626Z" fill="#DDDDDD"/>
<path d="M29.3537 9.3599C29.8051 9.3599 30.1709 8.99403 30.1709 8.54271C30.1709 8.09139 29.8051 7.72552 29.3537 7.72552C28.9024 7.72552 28.5366 8.09139 28.5366 8.54271C28.5366 8.99403 28.9024 9.3599 29.3537 9.3599Z" stroke="#DDDDDD" stroke-width="15" stroke-miterlimit="10"/>
</g>
<defs>
<clipPath id="clip0_63_361">
<rect width="40" height="40" fill="white"/>
</clipPath>
</defs>
</svg>
