<svg width="40" height="40" viewBox="0 0 40 40" fill="none" xmlns="http://www.w3.org/2000/svg">
<path d="M24.0859 39.7266C23.8906 39.7344 23.7656 39.75 23.6406 39.75C20.9688 39.75 18.3047 39.7422 15.6328 39.7578C15.2578 39.7578 15.1562 39.6563 15.1562 39.2813C15.1641 33.0625 15.1641 26.836 15.1641 20.6172C15.1641 20.4531 15.1641 20.2891 15.1641 20.0781C13.7109 20.0781 12.2969 20.0781 10.8594 20.0781C10.8594 17.8594 10.8594 15.6797 10.8594 13.4375C11.0078 13.4375 11.1484 13.4375 11.2812 13.4375C12.4531 13.4375 13.625 13.4297 14.7969 13.4453C15.0937 13.4453 15.1719 13.3594 15.1719 13.0703C15.1562 11.3281 15.1562 9.57814 15.1719 7.83596C15.1797 6.61721 15.375 5.42971 15.9375 4.32814C16.7422 2.77346 18.0156 1.76564 19.625 1.14064C20.9375 0.62502 22.3203 0.43752 23.7109 0.414082C25.9766 0.382832 28.2422 0.398457 30.5078 0.390645C30.7188 0.390645 30.8906 0.382832 30.8906 0.679707C30.8828 2.82814 30.8828 4.97658 30.8828 7.12502C30.8828 7.14846 30.875 7.17189 30.8438 7.27346C30.7109 7.27346 30.5625 7.27346 30.4141 7.27346C29.0078 7.27346 27.6016 7.26564 26.1953 7.27346C25.3828 7.27346 24.7266 7.60158 24.3125 8.31252C24.1875 8.52346 24.1094 8.79689 24.1094 9.04689C24.0859 10.375 24.1094 11.7031 24.0938 13.0313C24.0938 13.3438 24.1875 13.4297 24.4922 13.4297C26.4453 13.4141 28.3984 13.4219 30.3516 13.4219C30.5078 13.4219 30.6562 13.4219 30.9219 13.4219C30.6484 15.6563 30.3828 17.8438 30.1094 20.0547C28.0781 20.0547 26.1016 20.0547 24.0859 20.0547C24.0859 26.625 24.0859 33.1563 24.0859 39.7266Z" fill="#DDDDDD"/>
</svg>
