<svg width="187" height="25" viewBox="0 0 187 25" fill="none" xmlns="http://www.w3.org/2000/svg">
<path d="M19.332 10.4102C19.332 11.1523 19.2422 11.8867 19.0625 12.6133C18.8906 13.332 18.625 13.9844 18.2656 14.5703C17.9062 15.1484 17.4531 15.6133 16.9062 15.9648C16.3672 16.3086 15.7266 16.4805 14.9844 16.4805C14.3984 16.4805 13.8789 16.3398 13.4258 16.0586C12.9805 15.7773 12.668 15.4141 12.4883 14.9688H12.3008C11.9727 15.3672 11.543 15.7188 11.0117 16.0234C10.4805 16.3281 9.83594 16.4805 9.07812 16.4805C7.64844 16.4805 6.54688 16.0547 5.77344 15.2031C5 14.3438 4.61328 13.2188 4.61328 11.8281C4.61328 10.75 4.84375 9.80078 5.30469 8.98047C5.76562 8.15234 6.42188 7.50391 7.27344 7.03516C8.125 6.56641 9.12891 6.33203 10.2852 6.33203C11.043 6.33203 11.8203 6.40234 12.6172 6.54297C13.4219 6.67578 14.0508 6.82031 14.5039 6.97656L14.2695 11.8984C14.2539 12.0625 14.2422 12.2266 14.2344 12.3906C14.2344 12.5547 14.2344 12.6602 14.2344 12.707C14.2344 13.3711 14.3242 13.8125 14.5039 14.0312C14.6914 14.2422 14.8984 14.3477 15.125 14.3477C15.4844 14.3477 15.7852 14.168 16.0273 13.8086C16.2695 13.4492 16.4531 12.9688 16.5781 12.3672C16.7031 11.7656 16.7656 11.1055 16.7656 10.3867C16.7656 9.05078 16.4922 7.91406 15.9453 6.97656C15.4062 6.03125 14.6641 5.3125 13.7188 4.82031C12.7812 4.32031 11.7148 4.07031 10.5195 4.07031C9.26172 4.07031 8.15234 4.26953 7.19141 4.66797C6.23047 5.06641 5.42188 5.625 4.76562 6.34375C4.11719 7.0625 3.625 7.91016 3.28906 8.88672C2.96094 9.86328 2.79688 10.9297 2.79688 12.0859C2.79688 13.5234 3.05469 14.7422 3.57031 15.7422C4.08594 16.7422 4.84375 17.5 5.84375 18.0156C6.85156 18.5312 8.08203 18.7891 9.53516 18.7891C10.4648 18.7891 11.4297 18.6875 12.4297 18.4844C13.4375 18.2734 14.3594 18.0117 15.1953 17.6992V19.9609C14.4297 20.2812 13.5742 20.5352 12.6289 20.7227C11.6836 20.918 10.6836 21.0156 9.62891 21.0156C7.64453 21.0156 5.94922 20.6641 4.54297 19.9609C3.13672 19.2578 2.05859 18.2461 1.30859 16.9258C0.566406 15.5977 0.195312 14.0078 0.195312 12.1562C0.195312 10.7031 0.433594 9.35547 0.910156 8.11328C1.39453 6.86328 2.08594 5.77344 2.98438 4.84375C3.88281 3.90625 4.96484 3.17578 6.23047 2.65234C7.50391 2.12891 8.92578 1.86719 10.4961 1.86719C12.207 1.86719 13.7266 2.21484 15.0547 2.91016C16.3906 3.59766 17.4375 4.57812 18.1953 5.85156C18.9531 7.125 19.332 8.64453 19.332 10.4102ZM7.33203 11.875C7.33203 12.75 7.51172 13.3828 7.87109 13.7734C8.23828 14.1562 8.73047 14.3477 9.34766 14.3477C10.1523 14.3477 10.7188 14.0547 11.0469 13.4688C11.375 12.8828 11.5664 12.1172 11.6211 11.1719L11.7734 8.58203C11.5938 8.54297 11.3906 8.51562 11.1641 8.5C10.9375 8.47656 10.6914 8.46484 10.4258 8.46484C9.66797 8.46484 9.0625 8.63281 8.60938 8.96875C8.15625 9.29688 7.82812 9.72266 7.625 10.2461C7.42969 10.7617 7.33203 11.3047 7.33203 11.875ZM36.9102 10.2695C36.9102 12.1992 36.5391 13.8125 35.7969 15.1094C35.0625 16.3984 33.9961 17.3711 32.5977 18.0273C31.1992 18.6758 29.5156 19 27.5469 19H22.6953V1.86719H28.0742C29.8711 1.86719 31.4297 2.1875 32.75 2.82812C34.0703 3.46094 35.0938 4.40234 35.8203 5.65234C36.5469 6.89453 36.9102 8.43359 36.9102 10.2695ZM33.1367 10.3633C33.1367 9.09766 32.9492 8.05859 32.5742 7.24609C32.207 6.42578 31.6602 5.82031 30.9336 5.42969C30.2148 5.03906 29.3242 4.84375 28.2617 4.84375H26.3281V16H27.8867C29.6602 16 30.9766 15.5273 31.8359 14.582C32.7031 13.6367 33.1367 12.2305 33.1367 10.3633ZM43.7539 5.89844V19H40.1797V5.89844H43.7539ZM41.9727 0.765625C42.5039 0.765625 42.9609 0.890625 43.3438 1.14062C43.7266 1.38281 43.918 1.83984 43.918 2.51172C43.918 3.17578 43.7266 3.63672 43.3438 3.89453C42.9609 4.14453 42.5039 4.26953 41.9727 4.26953C41.4336 4.26953 40.9727 4.14453 40.5898 3.89453C40.2148 3.63672 40.0273 3.17578 40.0273 2.51172C40.0273 1.83984 40.2148 1.38281 40.5898 1.14062C40.9727 0.890625 41.4336 0.765625 41.9727 0.765625ZM52.918 5.65234C54.1289 5.65234 55.1719 5.88672 56.0469 6.35547C56.9219 6.81641 57.5977 7.48828 58.0742 8.37109C58.5508 9.25391 58.7891 10.332 58.7891 11.6055V13.3398H50.3398C50.3789 14.3477 50.6797 15.1406 51.2422 15.7188C51.8125 16.2891 52.6016 16.5742 53.6094 16.5742C54.4453 16.5742 55.2109 16.4883 55.9062 16.3164C56.6016 16.1445 57.3164 15.8867 58.0508 15.543V18.3086C57.4023 18.6289 56.7227 18.8633 56.0117 19.0117C55.3086 19.1602 54.4531 19.2344 53.4453 19.2344C52.1328 19.2344 50.9688 18.9922 49.9531 18.5078C48.9453 18.0234 48.1523 17.2852 47.5742 16.293C47.0039 15.3008 46.7188 14.0508 46.7188 12.543C46.7188 11.0117 46.9766 9.73828 47.4922 8.72266C48.0156 7.69922 48.7422 6.93359 49.6719 6.42578C50.6016 5.91016 51.6836 5.65234 52.918 5.65234ZM52.9414 8.19531C52.2461 8.19531 51.668 8.41797 51.207 8.86328C50.7539 9.30859 50.4922 10.0078 50.4219 10.9609H55.4375C55.4297 10.4297 55.332 9.95703 55.1445 9.54297C54.9648 9.12891 54.6914 8.80078 54.3242 8.55859C53.9648 8.31641 53.5039 8.19531 52.9414 8.19531ZM65.5273 24.7656C63.6992 24.7656 62.3008 24.4453 61.332 23.8047C60.3711 23.1719 59.8906 22.2812 59.8906 21.1328C59.8906 20.3438 60.1367 19.6836 60.6289 19.1523C61.1211 18.6211 61.8438 18.2422 62.7969 18.0156C62.4297 17.8594 62.1094 17.6055 61.8359 17.2539C61.5625 16.8945 61.4258 16.5156 61.4258 16.1172C61.4258 15.6172 61.5703 15.2031 61.8594 14.875C62.1484 14.5391 62.5664 14.2109 63.1133 13.8906C62.4258 13.5938 61.8789 13.1172 61.4727 12.4609C61.0742 11.8047 60.875 11.0312 60.875 10.1406C60.875 9.1875 61.082 8.37891 61.4961 7.71484C61.918 7.04297 62.5273 6.53125 63.3242 6.17969C64.1289 5.82812 65.1055 5.65234 66.2539 5.65234C66.4961 5.65234 66.7773 5.66797 67.0977 5.69922C67.418 5.73047 67.7109 5.76562 67.9766 5.80469C68.25 5.84375 68.4336 5.875 68.5273 5.89844H73.0977V7.71484L71.0469 8.24219C71.2344 8.53125 71.375 8.83984 71.4688 9.16797C71.5625 9.49609 71.6094 9.84375 71.6094 10.2109C71.6094 11.6172 71.1172 12.7148 70.1328 13.5039C69.1562 14.2852 67.7969 14.6758 66.0547 14.6758C65.6406 14.6523 65.25 14.6211 64.8828 14.582C64.7031 14.7227 64.5664 14.8711 64.4727 15.0273C64.3789 15.1836 64.332 15.3477 64.332 15.5195C64.332 15.6914 64.4023 15.8359 64.543 15.9531C64.6914 16.0625 64.9102 16.1484 65.1992 16.2109C65.4961 16.2656 65.8633 16.293 66.3008 16.293H68.5273C69.9648 16.293 71.0586 16.6016 71.8086 17.2188C72.5664 17.8359 72.9453 18.7422 72.9453 19.9375C72.9453 21.4688 72.3047 22.6562 71.0234 23.5C69.75 24.3438 67.918 24.7656 65.5273 24.7656ZM65.6797 22.4336C66.5312 22.4336 67.2617 22.3516 67.8711 22.1875C68.4883 22.0312 68.9609 21.8047 69.2891 21.5078C69.6172 21.2188 69.7812 20.8711 69.7812 20.4648C69.7812 20.1367 69.6836 19.875 69.4883 19.6797C69.3008 19.4922 69.0117 19.3594 68.6211 19.2812C68.2383 19.2031 67.7461 19.1641 67.1445 19.1641H65.293C64.8555 19.1641 64.4609 19.2344 64.1094 19.375C63.7656 19.5156 63.4922 19.7109 63.2891 19.9609C63.0859 20.2188 62.9844 20.5156 62.9844 20.8516C62.9844 21.3438 63.2188 21.7305 63.6875 22.0117C64.1641 22.293 64.8281 22.4336 65.6797 22.4336ZM66.2539 12.4961C66.9258 12.4961 67.418 12.2891 67.7305 11.875C68.043 11.4609 68.1992 10.8984 68.1992 10.1875C68.1992 9.39844 68.0352 8.80859 67.707 8.41797C67.3867 8.01953 66.9023 7.82031 66.2539 7.82031C65.5977 7.82031 65.1055 8.01953 64.7773 8.41797C64.4492 8.80859 64.2852 9.39844 64.2852 10.1875C64.2852 10.8984 64.4453 11.4609 64.7656 11.875C65.0938 12.2891 65.5898 12.4961 66.2539 12.4961ZM87.1719 12.4258C87.1719 13.5195 87.0234 14.4883 86.7266 15.332C86.4375 16.1758 86.0117 16.8906 85.4492 17.4766C84.8945 18.0547 84.2227 18.4922 83.4336 18.7891C82.6523 19.0859 81.7695 19.2344 80.7852 19.2344C79.8633 19.2344 79.0156 19.0859 78.2422 18.7891C77.4766 18.4922 76.8086 18.0547 76.2383 17.4766C75.6758 16.8906 75.2383 16.1758 74.9258 15.332C74.6211 14.4883 74.4688 13.5195 74.4688 12.4258C74.4688 10.9727 74.7266 9.74219 75.2422 8.73438C75.7578 7.72656 76.4922 6.96094 77.4453 6.4375C78.3984 5.91406 79.5352 5.65234 80.8555 5.65234C82.082 5.65234 83.168 5.91406 84.1133 6.4375C85.0664 6.96094 85.8125 7.72656 86.3516 8.73438C86.8984 9.74219 87.1719 10.9727 87.1719 12.4258ZM78.1133 12.4258C78.1133 13.2852 78.207 14.0078 78.3945 14.5938C78.582 15.1797 78.875 15.6211 79.2734 15.918C79.6719 16.2148 80.1914 16.3633 80.832 16.3633C81.4648 16.3633 81.9766 16.2148 82.3672 15.918C82.7656 15.6211 83.0547 15.1797 83.2344 14.5938C83.4219 14.0078 83.5156 13.2852 83.5156 12.4258C83.5156 11.5586 83.4219 10.8398 83.2344 10.2695C83.0547 9.69141 82.7656 9.25781 82.3672 8.96875C81.9688 8.67969 81.4492 8.53516 80.8086 8.53516C79.8633 8.53516 79.1758 8.85938 78.7461 9.50781C78.3242 10.1562 78.1133 11.1289 78.1133 12.4258ZM100.52 14.2422C100.52 15.2578 100.273 16.1406 99.7812 16.8906C99.2891 17.6406 98.5703 18.2188 97.625 18.625C96.6875 19.0312 95.5469 19.2344 94.2031 19.2344C93.6094 19.2344 93.0273 19.1953 92.457 19.1172C91.8945 19.0391 91.3516 18.9258 90.8281 18.7773C90.3125 18.6211 89.8203 18.4297 89.3516 18.2031V14.8281C90.1641 15.1875 91.0078 15.5117 91.8828 15.8008C92.7578 16.0898 93.625 16.2344 94.4844 16.2344C95.0781 16.2344 95.5547 16.1562 95.9141 16C96.2812 15.8438 96.5469 15.6289 96.7109 15.3555C96.875 15.082 96.957 14.7695 96.957 14.418C96.957 13.9883 96.8125 13.6211 96.5234 13.3164C96.2344 13.0117 95.8359 12.7266 95.3281 12.4609C94.8281 12.1953 94.2617 11.9102 93.6289 11.6055C93.2305 11.418 92.7969 11.1914 92.3281 10.9258C91.8594 10.6523 91.4141 10.3203 90.9922 9.92969C90.5703 9.53906 90.2227 9.06641 89.9492 8.51172C89.6836 7.94922 89.5508 7.27734 89.5508 6.49609C89.5508 5.47266 89.7852 4.59766 90.2539 3.87109C90.7227 3.14453 91.3906 2.58984 92.2578 2.20703C93.1328 1.81641 94.1641 1.62109 95.3516 1.62109C96.2422 1.62109 97.0898 1.72656 97.8945 1.9375C98.707 2.14062 99.5547 2.4375 100.438 2.82812L99.2656 5.65234C98.4766 5.33203 97.7695 5.08594 97.1445 4.91406C96.5195 4.73438 95.8828 4.64453 95.2344 4.64453C94.7812 4.64453 94.3945 4.71875 94.0742 4.86719C93.7539 5.00781 93.5117 5.21094 93.3477 5.47656C93.1836 5.73438 93.1016 6.03516 93.1016 6.37891C93.1016 6.78516 93.2188 7.12891 93.4531 7.41016C93.6953 7.68359 94.0547 7.94922 94.5312 8.20703C95.0156 8.46484 95.6172 8.76562 96.3359 9.10938C97.2109 9.52344 97.957 9.95703 98.5742 10.4102C99.1992 10.8555 99.6797 11.3828 100.016 11.9922C100.352 12.5938 100.52 13.3438 100.52 14.2422ZM106.918 5.89844V19H103.344V5.89844H106.918ZM105.137 0.765625C105.668 0.765625 106.125 0.890625 106.508 1.14062C106.891 1.38281 107.082 1.83984 107.082 2.51172C107.082 3.17578 106.891 3.63672 106.508 3.89453C106.125 4.14453 105.668 4.26953 105.137 4.26953C104.598 4.26953 104.137 4.14453 103.754 3.89453C103.379 3.63672 103.191 3.17578 103.191 2.51172C103.191 1.83984 103.379 1.38281 103.754 1.14062C104.137 0.890625 104.598 0.765625 105.137 0.765625ZM126.066 5.65234C127.551 5.65234 128.672 6.03516 129.43 6.80078C130.195 7.55859 130.578 8.77734 130.578 10.457V19H126.992V11.3477C126.992 10.4102 126.832 9.70312 126.512 9.22656C126.191 8.75 125.695 8.51172 125.023 8.51172C124.078 8.51172 123.406 8.85156 123.008 9.53125C122.609 10.2031 122.41 11.168 122.41 12.4258V19H118.836V11.3477C118.836 10.7227 118.766 10.1992 118.625 9.77734C118.484 9.35547 118.27 9.03906 117.98 8.82812C117.691 8.61719 117.32 8.51172 116.867 8.51172C116.203 8.51172 115.68 8.67969 115.297 9.01562C114.922 9.34375 114.652 9.83203 114.488 10.4805C114.332 11.1211 114.254 11.9062 114.254 12.8359V19H110.68V5.89844H113.41L113.891 7.57422H114.09C114.355 7.12109 114.688 6.75391 115.086 6.47266C115.492 6.19141 115.938 5.98438 116.422 5.85156C116.906 5.71875 117.398 5.65234 117.898 5.65234C118.859 5.65234 119.672 5.80859 120.336 6.12109C121.008 6.43359 121.523 6.91797 121.883 7.57422H122.199C122.59 6.90234 123.141 6.41406 123.852 6.10938C124.57 5.80469 125.309 5.65234 126.066 5.65234ZM146.164 12.4258C146.164 13.5195 146.016 14.4883 145.719 15.332C145.43 16.1758 145.004 16.8906 144.441 17.4766C143.887 18.0547 143.215 18.4922 142.426 18.7891C141.645 19.0859 140.762 19.2344 139.777 19.2344C138.855 19.2344 138.008 19.0859 137.234 18.7891C136.469 18.4922 135.801 18.0547 135.23 17.4766C134.668 16.8906 134.23 16.1758 133.918 15.332C133.613 14.4883 133.461 13.5195 133.461 12.4258C133.461 10.9727 133.719 9.74219 134.234 8.73438C134.75 7.72656 135.484 6.96094 136.438 6.4375C137.391 5.91406 138.527 5.65234 139.848 5.65234C141.074 5.65234 142.16 5.91406 143.105 6.4375C144.059 6.96094 144.805 7.72656 145.344 8.73438C145.891 9.74219 146.164 10.9727 146.164 12.4258ZM137.105 12.4258C137.105 13.2852 137.199 14.0078 137.387 14.5938C137.574 15.1797 137.867 15.6211 138.266 15.918C138.664 16.2148 139.184 16.3633 139.824 16.3633C140.457 16.3633 140.969 16.2148 141.359 15.918C141.758 15.6211 142.047 15.1797 142.227 14.5938C142.414 14.0078 142.508 13.2852 142.508 12.4258C142.508 11.5586 142.414 10.8398 142.227 10.2695C142.047 9.69141 141.758 9.25781 141.359 8.96875C140.961 8.67969 140.441 8.53516 139.801 8.53516C138.855 8.53516 138.168 8.85938 137.738 9.50781C137.316 10.1562 137.105 11.1289 137.105 12.4258ZM161.141 5.89844V19H158.398L157.918 17.3242H157.73C157.449 17.7695 157.098 18.1328 156.676 18.4141C156.254 18.6953 155.789 18.9023 155.281 19.0352C154.773 19.168 154.246 19.2344 153.699 19.2344C152.762 19.2344 151.945 19.0703 151.25 18.7422C150.555 18.4062 150.012 17.8867 149.621 17.1836C149.238 16.4805 149.047 15.5664 149.047 14.4414V5.89844H152.621V13.5508C152.621 14.4883 152.789 15.1953 153.125 15.6719C153.461 16.1484 153.996 16.3867 154.73 16.3867C155.457 16.3867 156.027 16.2227 156.441 15.8945C156.855 15.5586 157.145 15.0703 157.309 14.4297C157.48 13.7812 157.566 12.9922 157.566 12.0625V5.89844H161.141ZM172.203 5.65234C172.383 5.65234 172.59 5.66406 172.824 5.6875C173.066 5.70312 173.262 5.72656 173.41 5.75781L173.141 9.10938C173.023 9.07031 172.855 9.04297 172.637 9.02734C172.426 9.00391 172.242 8.99219 172.086 8.99219C171.625 8.99219 171.176 9.05078 170.738 9.16797C170.309 9.28516 169.922 9.47656 169.578 9.74219C169.234 10 168.961 10.3438 168.758 10.7734C168.562 11.1953 168.465 11.7148 168.465 12.332V19H164.891V5.89844H167.598L168.125 8.10156H168.301C168.559 7.65625 168.879 7.25 169.262 6.88281C169.652 6.50781 170.094 6.21094 170.586 5.99219C171.086 5.76562 171.625 5.65234 172.203 5.65234ZM181.156 5.62891C182.914 5.62891 184.262 6.01172 185.199 6.77734C186.137 7.54297 186.605 8.70703 186.605 10.2695V19H184.109L183.418 17.2188H183.324C182.949 17.6875 182.566 18.0703 182.176 18.3672C181.785 18.6641 181.336 18.8828 180.828 19.0234C180.32 19.1641 179.703 19.2344 178.977 19.2344C178.203 19.2344 177.508 19.0859 176.891 18.7891C176.281 18.4922 175.801 18.0391 175.449 17.4297C175.098 16.8125 174.922 16.0312 174.922 15.0859C174.922 13.6953 175.41 12.6719 176.387 12.0156C177.363 11.3516 178.828 10.9844 180.781 10.9141L183.055 10.8438V10.2695C183.055 9.58203 182.875 9.07812 182.516 8.75781C182.156 8.4375 181.656 8.27734 181.016 8.27734C180.383 8.27734 179.762 8.36719 179.152 8.54688C178.543 8.72656 177.934 8.95312 177.324 9.22656L176.141 6.8125C176.836 6.44531 177.613 6.15625 178.473 5.94531C179.34 5.73438 180.234 5.62891 181.156 5.62891ZM183.055 12.9297L181.672 12.9766C180.516 13.0078 179.711 13.2148 179.258 13.5977C178.812 13.9805 178.59 14.4844 178.59 15.1094C178.59 15.6562 178.75 16.0469 179.07 16.2812C179.391 16.5078 179.809 16.6211 180.324 16.6211C181.09 16.6211 181.734 16.3945 182.258 15.9414C182.789 15.4883 183.055 14.8438 183.055 14.0078V12.9297Z" fill="#DDDDDD"/>
</svg>
