<svg width="40" height="40" viewBox="0 0 40 40" fill="none" xmlns="http://www.w3.org/2000/svg">
<g clip-path="url(#clip0_63_373)">
<path fill-rule="evenodd" clip-rule="evenodd" d="M20.0181 5.21563C11.7244 5.21563 5 11.94 5 20.2362C5 26.8719 9.30312 32.5012 15.2719 34.4881C16.0231 34.6256 16.2969 34.1619 16.2969 33.7631C16.2969 33.4075 16.2844 32.4625 16.2769 31.2094C12.0987 32.1169 11.2175 29.1956 11.2175 29.1956C10.5344 27.4613 9.54938 26.9994 9.54938 26.9994C8.18563 26.0669 9.6525 26.0856 9.6525 26.0856C11.16 26.1925 11.9531 27.6337 11.9531 27.6337C13.2931 29.9287 15.4687 29.2656 16.3244 28.8819C16.4612 27.9112 16.8481 27.2494 17.2781 26.8738C13.9431 26.495 10.4362 25.2056 10.4362 19.4506C10.4362 17.8113 11.0219 16.47 11.9825 15.42C11.8281 15.04 11.3125 13.5131 12.1294 11.445C12.1294 11.445 13.3906 11.0412 16.26 12.985C17.4581 12.6519 18.7431 12.485 20.02 12.4794C21.2956 12.485 22.5806 12.6519 23.7806 12.985C26.6481 11.0412 27.9069 11.445 27.9069 11.445C28.7263 13.5131 28.2106 15.04 28.0562 15.42C29.0187 16.47 29.6006 17.8113 29.6006 19.4506C29.6006 25.2206 26.0881 26.49 22.7419 26.8619C23.2819 27.3256 23.7619 28.2419 23.7619 29.6437C23.7619 31.6512 23.7438 33.2712 23.7438 33.7631C23.7438 34.1656 24.0137 34.6331 24.7762 34.4863C30.74 32.4956 35.0394 26.87 35.0394 20.2362C35.0394 11.94 28.3144 5.21563 20.0181 5.21563Z" fill="#DDDDDD"/>
</g>
<defs>
<clipPath id="clip0_63_373">
<rect width="40" height="40" fill="white"/>
</clipPath>
</defs>
</svg>
