<svg width="50" height="50" viewBox="0 0 50 50" fill="none" xmlns="http://www.w3.org/2000/svg">
<g clip-path="url(#clip0_63_373)">
<path fill-rule="evenodd" clip-rule="evenodd" d="M25.0227 6.51953C14.6555 6.51953 6.25 14.925 6.25 25.2953C6.25 33.5898 11.6289 40.6266 19.0898 43.1102C20.0289 43.282 20.3711 42.7023 20.3711 42.2039C20.3711 41.7594 20.3555 40.5781 20.3461 39.0117C15.1234 40.1461 14.0219 36.4945 14.0219 36.4945C13.168 34.3266 11.9367 33.7492 11.9367 33.7492C10.232 32.5836 12.0656 32.607 12.0656 32.607C13.95 32.7406 14.9414 34.5422 14.9414 34.5422C16.6164 37.4109 19.3359 36.582 20.4055 36.1023C20.5766 34.8891 21.0602 34.0617 21.5977 33.5922C17.4289 33.1187 13.0453 31.507 13.0453 24.3133C13.0453 22.2641 13.7773 20.5875 14.9781 19.275C14.7852 18.8 14.1406 16.8914 15.1617 14.3062C15.1617 14.3062 16.7383 13.8016 20.325 16.2312C21.8227 15.8148 23.4289 15.6062 25.025 15.5992C26.6195 15.6062 28.2258 15.8148 29.7258 16.2312C33.3102 13.8016 34.8836 14.3062 34.8836 14.3062C35.9078 16.8914 35.2633 18.8 35.0703 19.275C36.2734 20.5875 37.0008 22.2641 37.0008 24.3133C37.0008 31.5258 32.6102 33.1125 28.4273 33.5773C29.1023 34.157 29.7023 35.3023 29.7023 37.0547C29.7023 39.5641 29.6797 41.5891 29.6797 42.2039C29.6797 42.707 30.0172 43.2914 30.9703 43.1078C38.425 40.6195 43.7992 33.5875 43.7992 25.2953C43.7992 14.925 35.393 6.51953 25.0227 6.51953Z" fill="#DDDDDD"/>
</g>
<defs>
<clipPath id="clip0_63_373">
<rect width="50" height="50" fill="white"/>
</clipPath>
</defs>
</svg>
