<svg width="231" height="113" viewBox="0 0 231 113" fill="none" xmlns="http://www.w3.org/2000/svg">
<path d="M4.01562 45.1562C3.04167 45.1562 2.2474 44.776 1.63281 44.0156C1.02344 43.25 0.71875 42.1276 0.71875 40.6484C0.71875 39.1536 1.02865 38.0234 1.64844 37.2578C2.26823 36.487 3.07812 36.1016 4.07812 36.1016C4.49479 36.1016 4.86198 36.1589 5.17969 36.2734C5.4974 36.388 5.77083 36.5417 6 36.7344C6.23438 36.9271 6.43229 37.1432 6.59375 37.3828H6.67188C6.64062 37.2161 6.60156 36.9714 6.55469 36.6484C6.51302 36.3203 6.49219 35.9844 6.49219 35.6406V32.8438H8.88281V45H7.05469L6.59375 43.8672H6.49219C6.34115 44.1068 6.15104 44.3255 5.92188 44.5234C5.69792 44.7161 5.42969 44.8698 5.11719 44.9844C4.80469 45.099 4.4375 45.1562 4.01562 45.1562ZM4.85156 43.2578C5.5026 43.2578 5.96094 43.0651 6.22656 42.6797C6.4974 42.2891 6.64062 41.7031 6.65625 40.9219V40.6641C6.65625 39.8151 6.52604 39.1667 6.26562 38.7188C6.00521 38.2656 5.52083 38.0391 4.8125 38.0391C4.28646 38.0391 3.875 38.2656 3.57812 38.7188C3.28125 39.1719 3.13281 39.8255 3.13281 40.6797C3.13281 41.5339 3.28125 42.1771 3.57812 42.6094C3.88021 43.0417 4.30469 43.2578 4.85156 43.2578Z" fill="#DDDDDD"/>
<path d="M13.7578 36.2656V45H11.375V36.2656H13.7578ZM12.5703 32.8438C12.9245 32.8438 13.2292 32.9271 13.4844 33.0938C13.7396 33.2552 13.8672 33.5599 13.8672 34.0078C13.8672 34.4505 13.7396 34.7578 13.4844 34.9297C13.2292 35.0964 12.9245 35.1797 12.5703 35.1797C12.2109 35.1797 11.9036 35.0964 11.6484 34.9297C11.3984 34.7578 11.2734 34.4505 11.2734 34.0078C11.2734 33.5599 11.3984 33.2552 11.6484 33.0938C11.9036 32.9271 12.2109 32.8438 12.5703 32.8438Z" fill="#DDDDDD"/>
<path d="M19.8672 36.1016C20.6745 36.1016 21.3698 36.2578 21.9531 36.5703C22.5365 36.8776 22.987 37.3255 23.3047 37.9141C23.6224 38.5026 23.7812 39.2214 23.7812 40.0703V41.2266H18.1484C18.1745 41.8984 18.375 42.4271 18.75 42.8125C19.1302 43.1927 19.6562 43.3828 20.3281 43.3828C20.8854 43.3828 21.3958 43.3255 21.8594 43.2109C22.3229 43.0964 22.7995 42.9245 23.2891 42.6953V44.5391C22.8568 44.7526 22.4036 44.9089 21.9297 45.0078C21.4609 45.1068 20.8906 45.1562 20.2188 45.1562C19.3438 45.1562 18.5677 44.9948 17.8906 44.6719C17.2188 44.349 16.6901 43.8568 16.3047 43.1953C15.9245 42.5339 15.7344 41.7005 15.7344 40.6953C15.7344 39.6745 15.9062 38.8255 16.25 38.1484C16.599 37.4661 17.0833 36.9557 17.7031 36.6172C18.3229 36.2734 19.0443 36.1016 19.8672 36.1016ZM19.8828 37.7969C19.4193 37.7969 19.0339 37.9453 18.7266 38.2422C18.4245 38.5391 18.25 39.0052 18.2031 39.6406H21.5469C21.5417 39.2865 21.4766 38.9714 21.3516 38.6953C21.2318 38.4193 21.0495 38.2005 20.8047 38.0391C20.5651 37.8776 20.2578 37.7969 19.8828 37.7969Z" fill="#DDDDDD"/>
<path d="M28.2734 48.8438C27.0547 48.8438 26.1224 48.6302 25.4766 48.2031C24.8359 47.7812 24.5156 47.1875 24.5156 46.4219C24.5156 45.8958 24.6797 45.4557 25.0078 45.1016C25.3359 44.7474 25.8177 44.4948 26.4531 44.3438C26.2083 44.2396 25.9948 44.0703 25.8125 43.8359C25.6302 43.5964 25.5391 43.3438 25.5391 43.0781C25.5391 42.7448 25.6354 42.4688 25.8281 42.25C26.0208 42.026 26.2995 41.8073 26.6641 41.5938C26.2057 41.3958 25.8411 41.0781 25.5703 40.6406C25.3047 40.2031 25.1719 39.6875 25.1719 39.0938C25.1719 38.4583 25.3099 37.9193 25.5859 37.4766C25.8672 37.0286 26.2734 36.6875 26.8047 36.4531C27.3411 36.2188 27.9922 36.1016 28.7578 36.1016C28.9193 36.1016 29.1068 36.112 29.3203 36.1328C29.5339 36.1536 29.7292 36.1771 29.9062 36.2031C30.0885 36.2292 30.2109 36.25 30.2734 36.2656H33.3203V37.4766L31.9531 37.8281C32.0781 38.0208 32.1719 38.2266 32.2344 38.4453C32.2969 38.6641 32.3281 38.8958 32.3281 39.1406C32.3281 40.0781 32 40.8099 31.3438 41.3359C30.6927 41.8568 29.7865 42.1172 28.625 42.1172C28.349 42.1016 28.0885 42.0807 27.8438 42.0547C27.724 42.1484 27.6328 42.2474 27.5703 42.3516C27.5078 42.4557 27.4766 42.5651 27.4766 42.6797C27.4766 42.7943 27.5234 42.8906 27.6172 42.9688C27.7161 43.0417 27.862 43.099 28.0547 43.1406C28.2526 43.1771 28.4974 43.1953 28.7891 43.1953H30.2734C31.2318 43.1953 31.9609 43.401 32.4609 43.8125C32.9661 44.224 33.2188 44.8281 33.2188 45.625C33.2188 46.6458 32.7917 47.4375 31.9375 48C31.0885 48.5625 29.8672 48.8438 28.2734 48.8438ZM28.375 47.2891C28.9427 47.2891 29.4297 47.2344 29.8359 47.125C30.2474 47.0208 30.5625 46.8698 30.7812 46.6719C31 46.4792 31.1094 46.2474 31.1094 45.9766C31.1094 45.7578 31.0443 45.5833 30.9141 45.4531C30.7891 45.3281 30.5964 45.2396 30.3359 45.1875C30.0807 45.1354 29.7526 45.1094 29.3516 45.1094H28.1172C27.8255 45.1094 27.5625 45.1562 27.3281 45.25C27.099 45.3438 26.9167 45.474 26.7812 45.6406C26.6458 45.8125 26.5781 46.0104 26.5781 46.2344C26.5781 46.5625 26.7344 46.8203 27.0469 47.0078C27.3646 47.1953 27.8073 47.2891 28.375 47.2891ZM28.7578 40.6641C29.2057 40.6641 29.5339 40.526 29.7422 40.25C29.9505 39.974 30.0547 39.599 30.0547 39.125C30.0547 38.599 29.9453 38.2057 29.7266 37.9453C29.513 37.6797 29.1901 37.5469 28.7578 37.5469C28.3203 37.5469 27.9922 37.6797 27.7734 37.9453C27.5547 38.2057 27.4453 38.599 27.4453 39.125C27.4453 39.599 27.5521 39.974 27.7656 40.25C27.9844 40.526 28.3151 40.6641 28.7578 40.6641Z" fill="#DDDDDD"/>
<path d="M42.7031 40.6172C42.7031 41.3464 42.6042 41.9922 42.4062 42.5547C42.2135 43.1172 41.9297 43.5938 41.5547 43.9844C41.1849 44.3698 40.737 44.6615 40.2109 44.8594C39.6901 45.0573 39.1016 45.1562 38.4453 45.1562C37.8307 45.1562 37.2656 45.0573 36.75 44.8594C36.2396 44.6615 35.7943 44.3698 35.4141 43.9844C35.0391 43.5938 34.7474 43.1172 34.5391 42.5547C34.3359 41.9922 34.2344 41.3464 34.2344 40.6172C34.2344 39.6484 34.4062 38.8281 34.75 38.1562C35.0938 37.4844 35.5833 36.974 36.2188 36.625C36.8542 36.276 37.612 36.1016 38.4922 36.1016C39.3099 36.1016 40.0339 36.276 40.6641 36.625C41.2995 36.974 41.7969 37.4844 42.1562 38.1562C42.5208 38.8281 42.7031 39.6484 42.7031 40.6172ZM36.6641 40.6172C36.6641 41.1901 36.7266 41.6719 36.8516 42.0625C36.9766 42.4531 37.1719 42.7474 37.4375 42.9453C37.7031 43.1432 38.0495 43.2422 38.4766 43.2422C38.8984 43.2422 39.2396 43.1432 39.5 42.9453C39.7656 42.7474 39.9583 42.4531 40.0781 42.0625C40.2031 41.6719 40.2656 41.1901 40.2656 40.6172C40.2656 40.0391 40.2031 39.5599 40.0781 39.1797C39.9583 38.7943 39.7656 38.5052 39.5 38.3125C39.2344 38.1198 38.888 38.0234 38.4609 38.0234C37.8307 38.0234 37.3724 38.2396 37.0859 38.6719C36.8047 39.1042 36.6641 39.7526 36.6641 40.6172Z" fill="#DDDDDD"/>
<path d="M50.0312 47.5312H43.3906V46.4375H50.0312V47.5312Z" fill="#DDDDDD"/>
<path d="M57.3438 42.4062C57.3438 43 57.2031 43.5026 56.9219 43.9141C56.6458 44.3203 56.2318 44.6302 55.6797 44.8438C55.1276 45.0521 54.4401 45.1562 53.6172 45.1562C53.0078 45.1562 52.4844 45.1172 52.0469 45.0391C51.6146 44.9609 51.1771 44.8307 50.7344 44.6484V42.6797C51.2083 42.8932 51.7161 43.0703 52.2578 43.2109C52.8047 43.3464 53.2839 43.4141 53.6953 43.4141C54.1589 43.4141 54.4896 43.3464 54.6875 43.2109C54.8906 43.0703 54.9922 42.888 54.9922 42.6641C54.9922 42.5182 54.9505 42.388 54.8672 42.2734C54.7891 42.1536 54.6172 42.0208 54.3516 41.875C54.0859 41.724 53.6693 41.5286 53.1016 41.2891C52.5547 41.0599 52.1042 40.8281 51.75 40.5938C51.401 40.3594 51.1406 40.0833 50.9688 39.7656C50.8021 39.4427 50.7188 39.0339 50.7188 38.5391C50.7188 37.7318 51.0312 37.125 51.6562 36.7188C52.2865 36.3073 53.1276 36.1016 54.1797 36.1016C54.7214 36.1016 55.237 36.1562 55.7266 36.2656C56.2214 36.375 56.7292 36.5495 57.25 36.7891L56.5312 38.5078C56.099 38.3203 55.6901 38.1667 55.3047 38.0469C54.9245 37.9271 54.5365 37.8672 54.1406 37.8672C53.7917 37.8672 53.5286 37.9141 53.3516 38.0078C53.1745 38.1016 53.0859 38.2448 53.0859 38.4375C53.0859 38.5781 53.1302 38.7031 53.2188 38.8125C53.3125 38.9219 53.4896 39.0443 53.75 39.1797C54.0156 39.3099 54.4036 39.4792 54.9141 39.6875C55.4089 39.8906 55.8385 40.1042 56.2031 40.3281C56.5677 40.5469 56.849 40.8203 57.0469 41.1484C57.2448 41.4714 57.3438 41.8906 57.3438 42.4062Z" fill="#DDDDDD"/>
<path d="M61.5859 36.2656V45H59.2031V36.2656H61.5859ZM60.3984 32.8438C60.7526 32.8438 61.0573 32.9271 61.3125 33.0938C61.5677 33.2552 61.6953 33.5599 61.6953 34.0078C61.6953 34.4505 61.5677 34.7578 61.3125 34.9297C61.0573 35.0964 60.7526 35.1797 60.3984 35.1797C60.0391 35.1797 59.7318 35.0964 59.4766 34.9297C59.2266 34.7578 59.1016 34.4505 59.1016 34.0078C59.1016 33.5599 59.2266 33.2552 59.4766 33.0938C59.7318 32.9271 60.0391 32.8438 60.3984 32.8438Z" fill="#DDDDDD"/>
<path d="M74.3516 36.1016C75.3411 36.1016 76.0885 36.3568 76.5938 36.8672C77.1042 37.3724 77.3594 38.1849 77.3594 39.3047V45H74.9688V39.8984C74.9688 39.2734 74.862 38.8021 74.6484 38.4844C74.4349 38.1667 74.1042 38.0078 73.6562 38.0078C73.026 38.0078 72.5781 38.2344 72.3125 38.6875C72.0469 39.1354 71.9141 39.7786 71.9141 40.6172V45H69.5312V39.8984C69.5312 39.4818 69.4844 39.1328 69.3906 38.8516C69.2969 38.5703 69.1536 38.3594 68.9609 38.2188C68.7682 38.0781 68.5208 38.0078 68.2188 38.0078C67.776 38.0078 67.4271 38.1198 67.1719 38.3438C66.9219 38.5625 66.7422 38.888 66.6328 39.3203C66.5286 39.7474 66.4766 40.2708 66.4766 40.8906V45H64.0938V36.2656H65.9141L66.2344 37.3828H66.3672C66.5443 37.0807 66.7656 36.8359 67.0312 36.6484C67.3021 36.4609 67.599 36.3229 67.9219 36.2344C68.2448 36.1458 68.5729 36.1016 68.9062 36.1016C69.5469 36.1016 70.0885 36.2057 70.5312 36.4141C70.9792 36.6224 71.3229 36.9453 71.5625 37.3828H71.7734C72.0339 36.9349 72.401 36.6094 72.875 36.4062C73.3542 36.2031 73.8464 36.1016 74.3516 36.1016Z" fill="#DDDDDD"/>
<path d="M87.75 40.6172C87.75 41.3464 87.651 41.9922 87.4531 42.5547C87.2604 43.1172 86.9766 43.5938 86.6016 43.9844C86.2318 44.3698 85.7839 44.6615 85.2578 44.8594C84.737 45.0573 84.1484 45.1562 83.4922 45.1562C82.8776 45.1562 82.3125 45.0573 81.7969 44.8594C81.2865 44.6615 80.8411 44.3698 80.4609 43.9844C80.0859 43.5938 79.7943 43.1172 79.5859 42.5547C79.3828 41.9922 79.2812 41.3464 79.2812 40.6172C79.2812 39.6484 79.4531 38.8281 79.7969 38.1562C80.1406 37.4844 80.6302 36.974 81.2656 36.625C81.901 36.276 82.6589 36.1016 83.5391 36.1016C84.3568 36.1016 85.0807 36.276 85.7109 36.625C86.3464 36.974 86.8438 37.4844 87.2031 38.1562C87.5677 38.8281 87.75 39.6484 87.75 40.6172ZM81.7109 40.6172C81.7109 41.1901 81.7734 41.6719 81.8984 42.0625C82.0234 42.4531 82.2188 42.7474 82.4844 42.9453C82.75 43.1432 83.0964 43.2422 83.5234 43.2422C83.9453 43.2422 84.2865 43.1432 84.5469 42.9453C84.8125 42.7474 85.0052 42.4531 85.125 42.0625C85.25 41.6719 85.3125 41.1901 85.3125 40.6172C85.3125 40.0391 85.25 39.5599 85.125 39.1797C85.0052 38.7943 84.8125 38.5052 84.5469 38.3125C84.2812 38.1198 83.9349 38.0234 83.5078 38.0234C82.8776 38.0234 82.4193 38.2396 82.1328 38.6719C81.8516 39.1042 81.7109 39.7526 81.7109 40.6172Z" fill="#DDDDDD"/>
<path d="M97.7344 36.2656V45H95.9062L95.5859 43.8828H95.4609C95.2734 44.1797 95.0391 44.4219 94.7578 44.6094C94.4766 44.7969 94.1667 44.9349 93.8281 45.0234C93.4896 45.112 93.138 45.1562 92.7734 45.1562C92.1484 45.1562 91.6042 45.0469 91.1406 44.8281C90.6771 44.6042 90.3151 44.2578 90.0547 43.7891C89.7995 43.3203 89.6719 42.7109 89.6719 41.9609V36.2656H92.0547V41.3672C92.0547 41.9922 92.1667 42.4635 92.3906 42.7812C92.6146 43.099 92.9714 43.2578 93.4609 43.2578C93.9453 43.2578 94.3255 43.1484 94.6016 42.9297C94.8776 42.7057 95.0703 42.3802 95.1797 41.9531C95.2943 41.5208 95.3516 40.9948 95.3516 40.375V36.2656H97.7344Z" fill="#DDDDDD"/>
<path d="M105.109 36.1016C105.229 36.1016 105.367 36.1094 105.523 36.125C105.685 36.1354 105.815 36.151 105.914 36.1719L105.734 38.4062C105.656 38.3802 105.544 38.362 105.398 38.3516C105.258 38.3359 105.135 38.3281 105.031 38.3281C104.724 38.3281 104.424 38.3672 104.133 38.4453C103.846 38.5234 103.589 38.651 103.359 38.8281C103.13 39 102.948 39.2292 102.812 39.5156C102.682 39.7969 102.617 40.1432 102.617 40.5547V45H100.234V36.2656H102.039L102.391 37.7344H102.508C102.68 37.4375 102.893 37.1667 103.148 36.9219C103.409 36.6719 103.703 36.474 104.031 36.3281C104.365 36.1771 104.724 36.1016 105.109 36.1016Z" fill="#DDDDDD"/>
<path d="M111.078 36.0859C112.25 36.0859 113.148 36.3411 113.773 36.8516C114.398 37.362 114.711 38.138 114.711 39.1797V45H113.047L112.586 43.8125H112.523C112.273 44.125 112.018 44.3802 111.758 44.5781C111.497 44.776 111.198 44.9219 110.859 45.0156C110.521 45.1094 110.109 45.1562 109.625 45.1562C109.109 45.1562 108.646 45.0573 108.234 44.8594C107.828 44.6615 107.508 44.3594 107.273 43.9531C107.039 43.5417 106.922 43.0208 106.922 42.3906C106.922 41.4635 107.247 40.7812 107.898 40.3438C108.549 39.901 109.526 39.6562 110.828 39.6094L112.344 39.5625V39.1797C112.344 38.7214 112.224 38.3854 111.984 38.1719C111.745 37.9583 111.411 37.8516 110.984 37.8516C110.562 37.8516 110.148 37.9115 109.742 38.0312C109.336 38.151 108.93 38.3021 108.523 38.4844L107.734 36.875C108.198 36.6302 108.716 36.4375 109.289 36.2969C109.867 36.1562 110.464 36.0859 111.078 36.0859ZM112.344 40.9531L111.422 40.9844C110.651 41.0052 110.115 41.1432 109.812 41.3984C109.516 41.6536 109.367 41.9896 109.367 42.4062C109.367 42.7708 109.474 43.0312 109.688 43.1875C109.901 43.3385 110.18 43.4141 110.523 43.4141C111.034 43.4141 111.464 43.263 111.812 42.9609C112.167 42.6589 112.344 42.2292 112.344 41.6719V40.9531Z" fill="#DDDDDD"/>
<path d="M129.477 39.2734C129.477 39.7682 129.417 40.2578 129.297 40.7422C129.182 41.2214 129.005 41.6562 128.766 42.0469C128.526 42.4323 128.224 42.7422 127.859 42.9766C127.5 43.2057 127.073 43.3203 126.578 43.3203C126.188 43.3203 125.841 43.2266 125.539 43.0391C125.242 42.8516 125.034 42.6094 124.914 42.3125H124.789C124.57 42.5781 124.284 42.8125 123.93 43.0156C123.576 43.2188 123.146 43.3203 122.641 43.3203C121.688 43.3203 120.953 43.0365 120.438 42.4688C119.922 41.8958 119.664 41.1458 119.664 40.2188C119.664 39.5 119.818 38.8672 120.125 38.3203C120.432 37.7682 120.87 37.3359 121.438 37.0234C122.005 36.7109 122.674 36.5547 123.445 36.5547C123.951 36.5547 124.469 36.6016 125 36.6953C125.536 36.7839 125.956 36.8802 126.258 36.9844L126.102 40.2656C126.091 40.375 126.083 40.4844 126.078 40.5938C126.078 40.7031 126.078 40.7734 126.078 40.8047C126.078 41.2474 126.138 41.5417 126.258 41.6875C126.383 41.8281 126.521 41.8984 126.672 41.8984C126.911 41.8984 127.112 41.7786 127.273 41.5391C127.435 41.2995 127.557 40.9792 127.641 40.5781C127.724 40.1771 127.766 39.737 127.766 39.2578C127.766 38.3672 127.583 37.6094 127.219 36.9844C126.859 36.3542 126.365 35.875 125.734 35.5469C125.109 35.2135 124.398 35.0469 123.602 35.0469C122.763 35.0469 122.023 35.1797 121.383 35.4453C120.742 35.7109 120.203 36.0833 119.766 36.5625C119.333 37.0417 119.005 37.6068 118.781 38.2578C118.562 38.9089 118.453 39.6198 118.453 40.3906C118.453 41.349 118.625 42.1615 118.969 42.8281C119.312 43.4948 119.818 44 120.484 44.3438C121.156 44.6875 121.977 44.8594 122.945 44.8594C123.565 44.8594 124.208 44.7917 124.875 44.6562C125.547 44.5156 126.161 44.3411 126.719 44.1328V45.6406C126.208 45.8542 125.638 46.0234 125.008 46.1484C124.378 46.2786 123.711 46.3438 123.008 46.3438C121.685 46.3438 120.555 46.1094 119.617 45.6406C118.68 45.1719 117.961 44.4974 117.461 43.6172C116.966 42.7318 116.719 41.6719 116.719 40.4375C116.719 39.4688 116.878 38.5703 117.195 37.7422C117.518 36.9089 117.979 36.1823 118.578 35.5625C119.177 34.9375 119.898 34.4505 120.742 34.1016C121.591 33.7526 122.539 33.5781 123.586 33.5781C124.727 33.5781 125.74 33.8099 126.625 34.2734C127.516 34.7318 128.214 35.3854 128.719 36.2344C129.224 37.0833 129.477 38.0964 129.477 39.2734ZM121.477 40.25C121.477 40.8333 121.596 41.2552 121.836 41.5156C122.081 41.7708 122.409 41.8984 122.82 41.8984C123.357 41.8984 123.734 41.7031 123.953 41.3125C124.172 40.9219 124.299 40.4115 124.336 39.7812L124.438 38.0547C124.318 38.0286 124.182 38.0104 124.031 38C123.88 37.9844 123.716 37.9766 123.539 37.9766C123.034 37.9766 122.63 38.0885 122.328 38.3125C122.026 38.5312 121.807 38.8151 121.672 39.1641C121.542 39.5078 121.477 39.8698 121.477 40.25Z" fill="#DDDDDD"/>
<path d="M133.914 32.8438V35.3203C133.914 35.7526 133.898 36.1641 133.867 36.5547C133.841 36.9453 133.82 37.2214 133.805 37.3828H133.93C134.117 37.0807 134.339 36.8359 134.594 36.6484C134.854 36.4609 135.141 36.3229 135.453 36.2344C135.766 36.1458 136.102 36.1016 136.461 36.1016C137.091 36.1016 137.641 36.2135 138.109 36.4375C138.578 36.6562 138.943 37.0026 139.203 37.4766C139.464 37.9453 139.594 38.5547 139.594 39.3047V45H137.211V39.8984C137.211 39.2734 137.096 38.8021 136.867 38.4844C136.638 38.1667 136.284 38.0078 135.805 38.0078C135.326 38.0078 134.948 38.1198 134.672 38.3438C134.396 38.5625 134.201 38.888 134.086 39.3203C133.971 39.7474 133.914 40.2708 133.914 40.8906V45H131.531V32.8438H133.914Z" fill="#DDDDDD"/>
<path d="M149.984 40.6172C149.984 41.3464 149.885 41.9922 149.688 42.5547C149.495 43.1172 149.211 43.5938 148.836 43.9844C148.466 44.3698 148.018 44.6615 147.492 44.8594C146.971 45.0573 146.383 45.1562 145.727 45.1562C145.112 45.1562 144.547 45.0573 144.031 44.8594C143.521 44.6615 143.076 44.3698 142.695 43.9844C142.32 43.5938 142.029 43.1172 141.82 42.5547C141.617 41.9922 141.516 41.3464 141.516 40.6172C141.516 39.6484 141.688 38.8281 142.031 38.1562C142.375 37.4844 142.865 36.974 143.5 36.625C144.135 36.276 144.893 36.1016 145.773 36.1016C146.591 36.1016 147.315 36.276 147.945 36.625C148.581 36.974 149.078 37.4844 149.438 38.1562C149.802 38.8281 149.984 39.6484 149.984 40.6172ZM143.945 40.6172C143.945 41.1901 144.008 41.6719 144.133 42.0625C144.258 42.4531 144.453 42.7474 144.719 42.9453C144.984 43.1432 145.331 43.2422 145.758 43.2422C146.18 43.2422 146.521 43.1432 146.781 42.9453C147.047 42.7474 147.24 42.4531 147.359 42.0625C147.484 41.6719 147.547 41.1901 147.547 40.6172C147.547 40.0391 147.484 39.5599 147.359 39.1797C147.24 38.7943 147.047 38.5052 146.781 38.3125C146.516 38.1198 146.169 38.0234 145.742 38.0234C145.112 38.0234 144.654 38.2396 144.367 38.6719C144.086 39.1042 143.945 39.7526 143.945 40.6172Z" fill="#DDDDDD"/>
<path d="M155.633 43.2578C155.893 43.2578 156.146 43.2318 156.391 43.1797C156.641 43.1276 156.888 43.0625 157.133 42.9844V44.7578C156.878 44.8724 156.56 44.9661 156.18 45.0391C155.805 45.1172 155.393 45.1562 154.945 45.1562C154.424 45.1562 153.956 45.0729 153.539 44.9062C153.128 44.7344 152.802 44.4401 152.562 44.0234C152.328 43.6016 152.211 43.0156 152.211 42.2656V38.0547H151.07V37.0469L152.383 36.25L153.07 34.4062H154.594V36.2656H157.039V38.0547H154.594V42.2656C154.594 42.599 154.688 42.849 154.875 43.0156C155.068 43.1771 155.32 43.2578 155.633 43.2578Z" fill="#DDDDDD"/>
<path d="M169.164 36.1016C170.154 36.1016 170.901 36.3568 171.406 36.8672C171.917 37.3724 172.172 38.1849 172.172 39.3047V45H169.781V39.8984C169.781 39.2734 169.674 38.8021 169.461 38.4844C169.247 38.1667 168.917 38.0078 168.469 38.0078C167.839 38.0078 167.391 38.2344 167.125 38.6875C166.859 39.1354 166.727 39.7786 166.727 40.6172V45H164.344V39.8984C164.344 39.4818 164.297 39.1328 164.203 38.8516C164.109 38.5703 163.966 38.3594 163.773 38.2188C163.581 38.0781 163.333 38.0078 163.031 38.0078C162.589 38.0078 162.24 38.1198 161.984 38.3438C161.734 38.5625 161.555 38.888 161.445 39.3203C161.341 39.7474 161.289 40.2708 161.289 40.8906V45H158.906V36.2656H160.727L161.047 37.3828H161.18C161.357 37.0807 161.578 36.8359 161.844 36.6484C162.115 36.4609 162.411 36.3229 162.734 36.2344C163.057 36.1458 163.385 36.1016 163.719 36.1016C164.359 36.1016 164.901 36.2057 165.344 36.4141C165.792 36.6224 166.135 36.9453 166.375 37.3828H166.586C166.846 36.9349 167.214 36.6094 167.688 36.4062C168.167 36.2031 168.659 36.1016 169.164 36.1016Z" fill="#DDDDDD"/>
<path d="M178.203 36.0859C179.375 36.0859 180.273 36.3411 180.898 36.8516C181.523 37.362 181.836 38.138 181.836 39.1797V45H180.172L179.711 43.8125H179.648C179.398 44.125 179.143 44.3802 178.883 44.5781C178.622 44.776 178.323 44.9219 177.984 45.0156C177.646 45.1094 177.234 45.1562 176.75 45.1562C176.234 45.1562 175.771 45.0573 175.359 44.8594C174.953 44.6615 174.633 44.3594 174.398 43.9531C174.164 43.5417 174.047 43.0208 174.047 42.3906C174.047 41.4635 174.372 40.7812 175.023 40.3438C175.674 39.901 176.651 39.6562 177.953 39.6094L179.469 39.5625V39.1797C179.469 38.7214 179.349 38.3854 179.109 38.1719C178.87 37.9583 178.536 37.8516 178.109 37.8516C177.688 37.8516 177.273 37.9115 176.867 38.0312C176.461 38.151 176.055 38.3021 175.648 38.4844L174.859 36.875C175.323 36.6302 175.841 36.4375 176.414 36.2969C176.992 36.1562 177.589 36.0859 178.203 36.0859ZM179.469 40.9531L178.547 40.9844C177.776 41.0052 177.24 41.1432 176.938 41.3984C176.641 41.6536 176.492 41.9896 176.492 42.4062C176.492 42.7708 176.599 43.0312 176.812 43.1875C177.026 43.3385 177.305 43.4141 177.648 43.4141C178.159 43.4141 178.589 43.263 178.938 42.9609C179.292 42.6589 179.469 42.2292 179.469 41.6719V40.9531Z" fill="#DDDDDD"/>
<path d="M186.68 36.2656V45H184.297V36.2656H186.68ZM185.492 32.8438C185.846 32.8438 186.151 32.9271 186.406 33.0938C186.661 33.2552 186.789 33.5599 186.789 34.0078C186.789 34.4505 186.661 34.7578 186.406 34.9297C186.151 35.0964 185.846 35.1797 185.492 35.1797C185.133 35.1797 184.826 35.0964 184.57 34.9297C184.32 34.7578 184.195 34.4505 184.195 34.0078C184.195 33.5599 184.32 33.2552 184.57 33.0938C184.826 32.9271 185.133 32.8438 185.492 32.8438Z" fill="#DDDDDD"/>
<path d="M191.57 45H189.188V32.8438H191.57V45Z" fill="#DDDDDD"/>
<path d="M193.742 43.8828C193.742 43.3932 193.875 43.0495 194.141 42.8516C194.411 42.6536 194.737 42.5547 195.117 42.5547C195.487 42.5547 195.805 42.6536 196.07 42.8516C196.341 43.0495 196.477 43.3932 196.477 43.8828C196.477 44.3516 196.341 44.6901 196.07 44.8984C195.805 45.1068 195.487 45.2109 195.117 45.2109C194.737 45.2109 194.411 45.1068 194.141 44.8984C193.875 44.6901 193.742 44.3516 193.742 43.8828Z" fill="#DDDDDD"/>
<path d="M202.188 45.1562C201.323 45.1562 200.586 45 199.977 44.6875C199.367 44.3698 198.904 43.8802 198.586 43.2188C198.268 42.5573 198.109 41.7109 198.109 40.6797C198.109 39.612 198.289 38.7422 198.648 38.0703C199.013 37.3932 199.516 36.8958 200.156 36.5781C200.802 36.2604 201.549 36.1016 202.398 36.1016C203.003 36.1016 203.523 36.1615 203.961 36.2812C204.404 36.3958 204.789 36.5339 205.117 36.6953L204.414 38.5391C204.039 38.388 203.69 38.2656 203.367 38.1719C203.044 38.0729 202.721 38.0234 202.398 38.0234C201.982 38.0234 201.635 38.1224 201.359 38.3203C201.083 38.513 200.878 38.8047 200.742 39.1953C200.607 39.5859 200.539 40.0755 200.539 40.6641C200.539 41.2422 200.612 41.7214 200.758 42.1016C200.904 42.4818 201.115 42.7656 201.391 42.9531C201.667 43.1354 202.003 43.2266 202.398 43.2266C202.893 43.2266 203.333 43.1615 203.719 43.0312C204.104 42.8958 204.479 42.7083 204.844 42.4688V44.5078C204.479 44.737 204.096 44.901 203.695 45C203.299 45.1042 202.797 45.1562 202.188 45.1562Z" fill="#DDDDDD"/>
<path d="M214.812 40.6172C214.812 41.3464 214.714 41.9922 214.516 42.5547C214.323 43.1172 214.039 43.5938 213.664 43.9844C213.294 44.3698 212.846 44.6615 212.32 44.8594C211.799 45.0573 211.211 45.1562 210.555 45.1562C209.94 45.1562 209.375 45.0573 208.859 44.8594C208.349 44.6615 207.904 44.3698 207.523 43.9844C207.148 43.5938 206.857 43.1172 206.648 42.5547C206.445 41.9922 206.344 41.3464 206.344 40.6172C206.344 39.6484 206.516 38.8281 206.859 38.1562C207.203 37.4844 207.693 36.974 208.328 36.625C208.964 36.276 209.721 36.1016 210.602 36.1016C211.419 36.1016 212.143 36.276 212.773 36.625C213.409 36.974 213.906 37.4844 214.266 38.1562C214.63 38.8281 214.812 39.6484 214.812 40.6172ZM208.773 40.6172C208.773 41.1901 208.836 41.6719 208.961 42.0625C209.086 42.4531 209.281 42.7474 209.547 42.9453C209.812 43.1432 210.159 43.2422 210.586 43.2422C211.008 43.2422 211.349 43.1432 211.609 42.9453C211.875 42.7474 212.068 42.4531 212.188 42.0625C212.312 41.6719 212.375 41.1901 212.375 40.6172C212.375 40.0391 212.312 39.5599 212.188 39.1797C212.068 38.7943 211.875 38.5052 211.609 38.3125C211.344 38.1198 210.997 38.0234 210.57 38.0234C209.94 38.0234 209.482 38.2396 209.195 38.6719C208.914 39.1042 208.773 39.7526 208.773 40.6172Z" fill="#DDDDDD"/>
<path d="M227.039 36.1016C228.029 36.1016 228.776 36.3568 229.281 36.8672C229.792 37.3724 230.047 38.1849 230.047 39.3047V45H227.656V39.8984C227.656 39.2734 227.549 38.8021 227.336 38.4844C227.122 38.1667 226.792 38.0078 226.344 38.0078C225.714 38.0078 225.266 38.2344 225 38.6875C224.734 39.1354 224.602 39.7786 224.602 40.6172V45H222.219V39.8984C222.219 39.4818 222.172 39.1328 222.078 38.8516C221.984 38.5703 221.841 38.3594 221.648 38.2188C221.456 38.0781 221.208 38.0078 220.906 38.0078C220.464 38.0078 220.115 38.1198 219.859 38.3438C219.609 38.5625 219.43 38.888 219.32 39.3203C219.216 39.7474 219.164 40.2708 219.164 40.8906V45H216.781V36.2656H218.602L218.922 37.3828H219.055C219.232 37.0807 219.453 36.8359 219.719 36.6484C219.99 36.4609 220.286 36.3229 220.609 36.2344C220.932 36.1458 221.26 36.1016 221.594 36.1016C222.234 36.1016 222.776 36.2057 223.219 36.4141C223.667 36.6224 224.01 36.9453 224.25 37.3828H224.461C224.721 36.9349 225.089 36.6094 225.562 36.4062C226.042 36.2031 226.534 36.1016 227.039 36.1016Z" fill="#DDDDDD"/>
<path d="M5.42188 70.5078H8.44531V72.2188H5.42188V75.2266H3.71094V72.2188H0.6875V70.5078H3.71094V67.4609H5.42188V70.5078Z" fill="#DDDDDD"/>
<path d="M13.9531 69.7031C14.651 69.7031 15.2708 69.8359 15.8125 70.1016C16.3594 70.3672 16.7891 70.7578 17.1016 71.2734C17.4141 71.7891 17.5703 72.4245 17.5703 73.1797C17.5703 74.0026 17.3984 74.7135 17.0547 75.3125C16.7161 75.9062 16.2083 76.362 15.5312 76.6797C14.8594 76.9974 14.0208 77.1562 13.0156 77.1562C12.4167 77.1562 11.8516 77.1042 11.3203 77C10.7943 76.901 10.3333 76.7474 9.9375 76.5391V74.4531C10.3333 74.6615 10.8073 74.8385 11.3594 74.9844C11.9167 75.125 12.4401 75.1953 12.9297 75.1953C13.4089 75.1953 13.8125 75.1328 14.1406 75.0078C14.4688 74.8776 14.7161 74.6797 14.8828 74.4141C15.0547 74.1432 15.1406 73.7995 15.1406 73.3828C15.1406 72.8255 14.9531 72.3984 14.5781 72.1016C14.2031 71.8047 13.6276 71.6562 12.8516 71.6562C12.5547 71.6562 12.2448 71.6849 11.9219 71.7422C11.6042 71.7995 11.3385 71.8568 11.125 71.9141L10.1641 71.3984L10.5938 65.5781H16.7891V67.625H12.7109L12.5 69.8672C12.6771 69.8307 12.8698 69.7943 13.0781 69.7578C13.2865 69.7214 13.5781 69.7031 13.9531 69.7031Z" fill="#DDDDDD"/>
<path d="M23.1094 69.7031C23.8073 69.7031 24.4271 69.8359 24.9688 70.1016C25.5156 70.3672 25.9453 70.7578 26.2578 71.2734C26.5703 71.7891 26.7266 72.4245 26.7266 73.1797C26.7266 74.0026 26.5547 74.7135 26.2109 75.3125C25.8724 75.9062 25.3646 76.362 24.6875 76.6797C24.0156 76.9974 23.1771 77.1562 22.1719 77.1562C21.5729 77.1562 21.0078 77.1042 20.4766 77C19.9505 76.901 19.4896 76.7474 19.0938 76.5391V74.4531C19.4896 74.6615 19.9635 74.8385 20.5156 74.9844C21.0729 75.125 21.5964 75.1953 22.0859 75.1953C22.5651 75.1953 22.9688 75.1328 23.2969 75.0078C23.625 74.8776 23.8724 74.6797 24.0391 74.4141C24.2109 74.1432 24.2969 73.7995 24.2969 73.3828C24.2969 72.8255 24.1094 72.3984 23.7344 72.1016C23.3594 71.8047 22.7839 71.6562 22.0078 71.6562C21.7109 71.6562 21.401 71.6849 21.0781 71.7422C20.7604 71.7995 20.4948 71.8568 20.2812 71.9141L19.3203 71.3984L19.75 65.5781H25.9453V67.625H21.8672L21.6562 69.8672C21.8333 69.8307 22.026 69.7943 22.2344 69.7578C22.4427 69.7214 22.7344 69.7031 23.1094 69.7031Z" fill="#DDDDDD"/>
<path d="M32.2656 72.6172C32.2656 71.7474 32.349 70.8984 32.5156 70.0703C32.6823 69.237 32.9401 68.4427 33.2891 67.6875C33.638 66.9271 34.0807 66.224 34.6172 65.5781H36.5703C35.8411 66.5781 35.2865 67.6823 34.9062 68.8906C34.5312 70.099 34.3438 71.3359 34.3438 72.6016C34.3438 73.4245 34.4271 74.2448 34.5938 75.0625C34.7604 75.875 35.0078 76.6589 35.3359 77.4141C35.6693 78.1693 36.0755 78.875 36.5547 79.5312H34.6172C34.0807 78.9062 33.638 78.2214 33.2891 77.4766C32.9401 76.737 32.6823 75.9583 32.5156 75.1406C32.349 74.3177 32.2656 73.4766 32.2656 72.6172Z" fill="#DDDDDD"/>
<path d="M45.6719 77H37.6875V75.3203L40.5547 72.4219C41.1328 71.8281 41.5964 71.3333 41.9453 70.9375C42.2995 70.5365 42.5547 70.1719 42.7109 69.8438C42.8724 69.5156 42.9531 69.1641 42.9531 68.7891C42.9531 68.3359 42.8255 67.9974 42.5703 67.7734C42.3203 67.5443 41.9844 67.4297 41.5625 67.4297C41.1198 67.4297 40.6901 67.5312 40.2734 67.7344C39.8568 67.9375 39.4219 68.2266 38.9688 68.6016L37.6562 67.0469C37.9844 66.7656 38.3307 66.5 38.6953 66.25C39.0651 66 39.4922 65.7995 39.9766 65.6484C40.4661 65.4922 41.0521 65.4141 41.7344 65.4141C42.4844 65.4141 43.1276 65.5495 43.6641 65.8203C44.2057 66.0911 44.6224 66.4609 44.9141 66.9297C45.2057 67.3932 45.3516 67.9193 45.3516 68.5078C45.3516 69.138 45.2266 69.7135 44.9766 70.2344C44.7266 70.7552 44.362 71.2708 43.8828 71.7812C43.4089 72.2917 42.8359 72.8568 42.1641 73.4766L40.6953 74.8594V74.9688H45.6719V77Z" fill="#DDDDDD"/>
<path d="M47.9766 77L52.2656 67.6094H46.6328V65.5781H54.8281V67.0938L50.5078 77H47.9766Z" fill="#DDDDDD"/>
<path d="M60.1406 72.6172C60.1406 73.4766 60.0573 74.3177 59.8906 75.1406C59.724 75.9583 59.4661 76.737 59.1172 77.4766C58.7734 78.2214 58.3307 78.9062 57.7891 79.5312H55.8516C56.3359 78.875 56.7422 78.1693 57.0703 77.4141C57.3984 76.6589 57.6458 75.875 57.8125 75.0625C57.9792 74.2448 58.0625 73.4245 58.0625 72.6016C58.0625 71.7578 57.9766 70.9245 57.8047 70.1016C57.638 69.2786 57.3906 68.487 57.0625 67.7266C56.7344 66.9609 56.3255 66.2448 55.8359 65.5781H57.7891C58.3307 66.224 58.7734 66.9271 59.1172 67.6875C59.4661 68.4427 59.724 69.237 59.8906 70.0703C60.0573 70.8984 60.1406 71.7474 60.1406 72.6172Z" fill="#DDDDDD"/>
<path d="M65.4141 73.6875V71.7344H69.6094V73.6875H65.4141Z" fill="#DDDDDD"/>
<path d="M82.8281 70.4531C82.8281 71.1094 82.7786 71.7604 82.6797 72.4062C82.5859 73.0521 82.4193 73.6615 82.1797 74.2344C81.9401 74.8021 81.6042 75.3073 81.1719 75.75C80.7396 76.1875 80.1901 76.5312 79.5234 76.7812C78.8568 77.0312 78.0495 77.1562 77.1016 77.1562C76.8776 77.1562 76.6146 77.1458 76.3125 77.125C76.0104 77.1094 75.7604 77.0833 75.5625 77.0469V75.1094C75.7708 75.1615 75.9922 75.2031 76.2266 75.2344C76.4609 75.2604 76.6979 75.2734 76.9375 75.2734C77.8906 75.2734 78.625 75.1224 79.1406 74.8203C79.6615 74.5182 80.026 74.099 80.2344 73.5625C80.4479 73.026 80.5703 72.4062 80.6016 71.7031H80.5078C80.3568 71.9531 80.1771 72.1797 79.9688 72.3828C79.7656 72.5807 79.5052 72.7396 79.1875 72.8594C78.8698 72.974 78.4661 73.0312 77.9766 73.0312C77.3255 73.0312 76.7578 72.8906 76.2734 72.6094C75.7943 72.3229 75.4219 71.9115 75.1562 71.375C74.8958 70.8333 74.7656 70.1797 74.7656 69.4141C74.7656 68.5859 74.9219 67.8776 75.2344 67.2891C75.5521 66.6953 76.0026 66.2396 76.5859 65.9219C77.1693 65.6042 77.8568 65.4453 78.6484 65.4453C79.2318 65.4453 79.776 65.5469 80.2812 65.75C80.7865 65.9479 81.2292 66.2526 81.6094 66.6641C81.9948 67.0755 82.2943 67.5964 82.5078 68.2266C82.7214 68.8568 82.8281 69.599 82.8281 70.4531ZM78.6953 67.3828C78.2266 67.3828 77.8438 67.5443 77.5469 67.8672C77.25 68.1901 77.1016 68.6953 77.1016 69.3828C77.1016 69.9349 77.2292 70.3724 77.4844 70.6953C77.7396 71.0182 78.1276 71.1797 78.6484 71.1797C79.0078 71.1797 79.3203 71.1016 79.5859 70.9453C79.8516 70.7839 80.0573 70.5833 80.2031 70.3438C80.3542 70.099 80.4297 69.849 80.4297 69.5938C80.4297 69.3281 80.3932 69.0651 80.3203 68.8047C80.2474 68.5443 80.138 68.3073 79.9922 68.0938C79.8464 67.8802 79.6641 67.7083 79.4453 67.5781C79.2318 67.4479 78.9818 67.3828 78.6953 67.3828Z" fill="#DDDDDD"/>
<path d="M91.9844 70.4531C91.9844 71.1094 91.9349 71.7604 91.8359 72.4062C91.7422 73.0521 91.5755 73.6615 91.3359 74.2344C91.0964 74.8021 90.7604 75.3073 90.3281 75.75C89.8958 76.1875 89.3464 76.5312 88.6797 76.7812C88.013 77.0312 87.2057 77.1562 86.2578 77.1562C86.0339 77.1562 85.7708 77.1458 85.4688 77.125C85.1667 77.1094 84.9167 77.0833 84.7188 77.0469V75.1094C84.9271 75.1615 85.1484 75.2031 85.3828 75.2344C85.6172 75.2604 85.8542 75.2734 86.0938 75.2734C87.0469 75.2734 87.7812 75.1224 88.2969 74.8203C88.8177 74.5182 89.1823 74.099 89.3906 73.5625C89.6042 73.026 89.7266 72.4062 89.7578 71.7031H89.6641C89.513 71.9531 89.3333 72.1797 89.125 72.3828C88.9219 72.5807 88.6615 72.7396 88.3438 72.8594C88.026 72.974 87.6224 73.0312 87.1328 73.0312C86.4818 73.0312 85.9141 72.8906 85.4297 72.6094C84.9505 72.3229 84.5781 71.9115 84.3125 71.375C84.0521 70.8333 83.9219 70.1797 83.9219 69.4141C83.9219 68.5859 84.0781 67.8776 84.3906 67.2891C84.7083 66.6953 85.1589 66.2396 85.7422 65.9219C86.3255 65.6042 87.013 65.4453 87.8047 65.4453C88.388 65.4453 88.9323 65.5469 89.4375 65.75C89.9427 65.9479 90.3854 66.2526 90.7656 66.6641C91.151 67.0755 91.4505 67.5964 91.6641 68.2266C91.8776 68.8568 91.9844 69.599 91.9844 70.4531ZM87.8516 67.3828C87.3828 67.3828 87 67.5443 86.7031 67.8672C86.4062 68.1901 86.2578 68.6953 86.2578 69.3828C86.2578 69.9349 86.3854 70.3724 86.6406 70.6953C86.8958 71.0182 87.2839 71.1797 87.8047 71.1797C88.1641 71.1797 88.4766 71.1016 88.7422 70.9453C89.0078 70.7839 89.2135 70.5833 89.3594 70.3438C89.5104 70.099 89.5859 69.849 89.5859 69.5938C89.5859 69.3281 89.5495 69.0651 89.4766 68.8047C89.4036 68.5443 89.2943 68.3073 89.1484 68.0938C89.0026 67.8802 88.8203 67.7083 88.6016 67.5781C88.388 67.4479 88.138 67.3828 87.8516 67.3828Z" fill="#DDDDDD"/>
<path d="M101.141 70.4531C101.141 71.1094 101.091 71.7604 100.992 72.4062C100.898 73.0521 100.732 73.6615 100.492 74.2344C100.253 74.8021 99.9167 75.3073 99.4844 75.75C99.0521 76.1875 98.5026 76.5312 97.8359 76.7812C97.1693 77.0312 96.362 77.1562 95.4141 77.1562C95.1901 77.1562 94.9271 77.1458 94.625 77.125C94.3229 77.1094 94.0729 77.0833 93.875 77.0469V75.1094C94.0833 75.1615 94.3047 75.2031 94.5391 75.2344C94.7734 75.2604 95.0104 75.2734 95.25 75.2734C96.2031 75.2734 96.9375 75.1224 97.4531 74.8203C97.974 74.5182 98.3385 74.099 98.5469 73.5625C98.7604 73.026 98.8828 72.4062 98.9141 71.7031H98.8203C98.6693 71.9531 98.4896 72.1797 98.2812 72.3828C98.0781 72.5807 97.8177 72.7396 97.5 72.8594C97.1823 72.974 96.7786 73.0312 96.2891 73.0312C95.638 73.0312 95.0703 72.8906 94.5859 72.6094C94.1068 72.3229 93.7344 71.9115 93.4688 71.375C93.2083 70.8333 93.0781 70.1797 93.0781 69.4141C93.0781 68.5859 93.2344 67.8776 93.5469 67.2891C93.8646 66.6953 94.3151 66.2396 94.8984 65.9219C95.4818 65.6042 96.1693 65.4453 96.9609 65.4453C97.5443 65.4453 98.0885 65.5469 98.5938 65.75C99.099 65.9479 99.5417 66.2526 99.9219 66.6641C100.307 67.0755 100.607 67.5964 100.82 68.2266C101.034 68.8568 101.141 69.599 101.141 70.4531ZM97.0078 67.3828C96.5391 67.3828 96.1562 67.5443 95.8594 67.8672C95.5625 68.1901 95.4141 68.6953 95.4141 69.3828C95.4141 69.9349 95.5417 70.3724 95.7969 70.6953C96.0521 71.0182 96.4401 71.1797 96.9609 71.1797C97.3203 71.1797 97.6328 71.1016 97.8984 70.9453C98.1641 70.7839 98.3698 70.5833 98.5156 70.3438C98.6667 70.099 98.7422 69.849 98.7422 69.5938C98.7422 69.3281 98.7057 69.0651 98.6328 68.8047C98.5599 68.5443 98.4505 68.3073 98.3047 68.0938C98.1589 67.8802 97.9766 67.7083 97.7578 67.5781C97.5443 67.4479 97.2943 67.3828 97.0078 67.3828Z" fill="#DDDDDD"/>
<path d="M110.281 71.2891C110.281 72.2109 110.208 73.0339 110.062 73.7578C109.922 74.4818 109.693 75.0964 109.375 75.6016C109.062 76.1068 108.651 76.4922 108.141 76.7578C107.63 77.0234 107.01 77.1562 106.281 77.1562C105.365 77.1562 104.612 76.9245 104.023 76.4609C103.435 75.9922 103 75.3203 102.719 74.4453C102.438 73.5651 102.297 72.513 102.297 71.2891C102.297 70.0547 102.424 69 102.68 68.125C102.94 67.2448 103.362 66.5703 103.945 66.1016C104.529 65.6328 105.307 65.3984 106.281 65.3984C107.193 65.3984 107.943 65.6328 108.531 66.1016C109.125 66.5651 109.565 67.237 109.852 68.1172C110.138 68.9922 110.281 70.0495 110.281 71.2891ZM104.695 71.2891C104.695 72.1589 104.742 72.8854 104.836 73.4688C104.935 74.0469 105.099 74.4818 105.328 74.7734C105.557 75.0651 105.875 75.2109 106.281 75.2109C106.682 75.2109 106.997 75.0677 107.227 74.7812C107.461 74.4896 107.628 74.0547 107.727 73.4766C107.826 72.8932 107.875 72.1641 107.875 71.2891C107.875 70.4193 107.826 69.6927 107.727 69.1094C107.628 68.526 107.461 68.0885 107.227 67.7969C106.997 67.5 106.682 67.3516 106.281 67.3516C105.875 67.3516 105.557 67.5 105.328 67.7969C105.099 68.0885 104.935 68.526 104.836 69.1094C104.742 69.6927 104.695 70.4193 104.695 71.2891Z" fill="#DDDDDD"/>
<path d="M111.352 73.6875V71.7344H115.547V73.6875H111.352Z" fill="#DDDDDD"/>
<path d="M124.609 70.4531C124.609 71.1094 124.56 71.7604 124.461 72.4062C124.367 73.0521 124.201 73.6615 123.961 74.2344C123.721 74.8021 123.385 75.3073 122.953 75.75C122.521 76.1875 121.971 76.5312 121.305 76.7812C120.638 77.0312 119.831 77.1562 118.883 77.1562C118.659 77.1562 118.396 77.1458 118.094 77.125C117.792 77.1094 117.542 77.0833 117.344 77.0469V75.1094C117.552 75.1615 117.773 75.2031 118.008 75.2344C118.242 75.2604 118.479 75.2734 118.719 75.2734C119.672 75.2734 120.406 75.1224 120.922 74.8203C121.443 74.5182 121.807 74.099 122.016 73.5625C122.229 73.026 122.352 72.4062 122.383 71.7031H122.289C122.138 71.9531 121.958 72.1797 121.75 72.3828C121.547 72.5807 121.286 72.7396 120.969 72.8594C120.651 72.974 120.247 73.0312 119.758 73.0312C119.107 73.0312 118.539 72.8906 118.055 72.6094C117.576 72.3229 117.203 71.9115 116.938 71.375C116.677 70.8333 116.547 70.1797 116.547 69.4141C116.547 68.5859 116.703 67.8776 117.016 67.2891C117.333 66.6953 117.784 66.2396 118.367 65.9219C118.951 65.6042 119.638 65.4453 120.43 65.4453C121.013 65.4453 121.557 65.5469 122.062 65.75C122.568 65.9479 123.01 66.2526 123.391 66.6641C123.776 67.0755 124.076 67.5964 124.289 68.2266C124.503 68.8568 124.609 69.599 124.609 70.4531ZM120.477 67.3828C120.008 67.3828 119.625 67.5443 119.328 67.8672C119.031 68.1901 118.883 68.6953 118.883 69.3828C118.883 69.9349 119.01 70.3724 119.266 70.6953C119.521 71.0182 119.909 71.1797 120.43 71.1797C120.789 71.1797 121.102 71.1016 121.367 70.9453C121.633 70.7839 121.839 70.5833 121.984 70.3438C122.135 70.099 122.211 69.849 122.211 69.5938C122.211 69.3281 122.174 69.0651 122.102 68.8047C122.029 68.5443 121.919 68.3073 121.773 68.0938C121.628 67.8802 121.445 67.7083 121.227 67.5781C121.013 67.4479 120.763 67.3828 120.477 67.3828Z" fill="#DDDDDD"/>
<path d="M133.812 77H125.828V75.3203L128.695 72.4219C129.273 71.8281 129.737 71.3333 130.086 70.9375C130.44 70.5365 130.695 70.1719 130.852 69.8438C131.013 69.5156 131.094 69.1641 131.094 68.7891C131.094 68.3359 130.966 67.9974 130.711 67.7734C130.461 67.5443 130.125 67.4297 129.703 67.4297C129.26 67.4297 128.831 67.5312 128.414 67.7344C127.997 67.9375 127.562 68.2266 127.109 68.6016L125.797 67.0469C126.125 66.7656 126.471 66.5 126.836 66.25C127.206 66 127.633 65.7995 128.117 65.6484C128.607 65.4922 129.193 65.4141 129.875 65.4141C130.625 65.4141 131.268 65.5495 131.805 65.8203C132.346 66.0911 132.763 66.4609 133.055 66.9297C133.346 67.3932 133.492 67.9193 133.492 68.5078C133.492 69.138 133.367 69.7135 133.117 70.2344C132.867 70.7552 132.503 71.2708 132.023 71.7812C131.549 72.2917 130.977 72.8568 130.305 73.4766L128.836 74.8594V74.9688H133.812V77Z" fill="#DDDDDD"/>
<path d="M136.117 77L140.406 67.6094H134.773V65.5781H142.969V67.0938L138.648 77H136.117Z" fill="#DDDDDD"/>
<path d="M150.109 77H147.695V70.3906C147.695 70.2083 147.698 69.9844 147.703 69.7188C147.708 69.4479 147.716 69.1719 147.727 68.8906C147.737 68.6042 147.747 68.3464 147.758 68.1172C147.701 68.1849 147.583 68.3021 147.406 68.4688C147.234 68.6302 147.073 68.776 146.922 68.9062L145.609 69.9609L144.445 68.5078L148.125 65.5781H150.109V77Z" fill="#DDDDDD"/>
<path d="M154.43 77L158.719 67.6094H153.086V65.5781H161.281V67.0938L156.961 77H154.43Z" fill="#DDDDDD"/>
<path d="M7.01562 109H0.4375V97.5781H7.01562V99.5625H2.85938V102.07H6.72656V104.055H2.85938V107H7.01562V109Z" fill="#DDDDDD"/>
<path d="M15.3125 106.406C15.3125 107 15.1719 107.503 14.8906 107.914C14.6146 108.32 14.2005 108.63 13.6484 108.844C13.0964 109.052 12.4089 109.156 11.5859 109.156C10.9766 109.156 10.4531 109.117 10.0156 109.039C9.58333 108.961 9.14583 108.831 8.70312 108.648V106.68C9.17708 106.893 9.6849 107.07 10.2266 107.211C10.7734 107.346 11.2526 107.414 11.6641 107.414C12.1276 107.414 12.4583 107.346 12.6562 107.211C12.8594 107.07 12.9609 106.888 12.9609 106.664C12.9609 106.518 12.9193 106.388 12.8359 106.273C12.7578 106.154 12.5859 106.021 12.3203 105.875C12.0547 105.724 11.638 105.529 11.0703 105.289C10.5234 105.06 10.0729 104.828 9.71875 104.594C9.36979 104.359 9.10938 104.083 8.9375 103.766C8.77083 103.443 8.6875 103.034 8.6875 102.539C8.6875 101.732 9 101.125 9.625 100.719C10.2552 100.307 11.0964 100.102 12.1484 100.102C12.6901 100.102 13.2057 100.156 13.6953 100.266C14.1901 100.375 14.6979 100.549 15.2188 100.789L14.5 102.508C14.0677 102.32 13.6589 102.167 13.2734 102.047C12.8932 101.927 12.5052 101.867 12.1094 101.867C11.7604 101.867 11.4974 101.914 11.3203 102.008C11.1432 102.102 11.0547 102.245 11.0547 102.438C11.0547 102.578 11.099 102.703 11.1875 102.812C11.2812 102.922 11.4583 103.044 11.7188 103.18C11.9844 103.31 12.3724 103.479 12.8828 103.688C13.3776 103.891 13.8073 104.104 14.1719 104.328C14.5365 104.547 14.8177 104.82 15.0156 105.148C15.2135 105.471 15.3125 105.891 15.3125 106.406Z" fill="#DDDDDD"/>
<path d="M22.0312 100.102C23.0156 100.102 23.8099 100.484 24.4141 101.25C25.0234 102.016 25.3281 103.138 25.3281 104.617C25.3281 105.607 25.1849 106.44 24.8984 107.117C24.612 107.789 24.2161 108.297 23.7109 108.641C23.2057 108.984 22.625 109.156 21.9688 109.156C21.5469 109.156 21.1849 109.104 20.8828 109C20.5807 108.891 20.3229 108.753 20.1094 108.586C19.8958 108.414 19.7109 108.232 19.5547 108.039H19.4297C19.4714 108.247 19.5026 108.461 19.5234 108.68C19.5443 108.898 19.5547 109.112 19.5547 109.32V112.844H17.1719V100.266H19.1094L19.4453 101.398H19.5547C19.7109 101.164 19.901 100.948 20.125 100.75C20.349 100.552 20.6172 100.396 20.9297 100.281C21.2474 100.161 21.6146 100.102 22.0312 100.102ZM21.2656 102.008C20.849 102.008 20.5182 102.094 20.2734 102.266C20.0286 102.438 19.849 102.695 19.7344 103.039C19.625 103.383 19.5651 103.818 19.5547 104.344V104.602C19.5547 105.164 19.6068 105.641 19.7109 106.031C19.8203 106.422 20 106.719 20.25 106.922C20.5052 107.125 20.8542 107.227 21.2969 107.227C21.6615 107.227 21.9609 107.125 22.1953 106.922C22.4297 106.719 22.6042 106.422 22.7188 106.031C22.8385 105.635 22.8984 105.154 22.8984 104.586C22.8984 103.732 22.7656 103.089 22.5 102.656C22.2344 102.224 21.8229 102.008 21.2656 102.008Z" fill="#DDDDDD"/>
<path d="M29.6797 100.266V109H27.2969V100.266H29.6797ZM28.4922 96.8438C28.8464 96.8438 29.151 96.9271 29.4062 97.0938C29.6615 97.2552 29.7891 97.5599 29.7891 98.0078C29.7891 98.4505 29.6615 98.7578 29.4062 98.9297C29.151 99.0964 28.8464 99.1797 28.4922 99.1797C28.1328 99.1797 27.8255 99.0964 27.5703 98.9297C27.3203 98.7578 27.1953 98.4505 27.1953 98.0078C27.1953 97.5599 27.3203 97.2552 27.5703 97.0938C27.8255 96.9271 28.1328 96.8438 28.4922 96.8438Z" fill="#DDDDDD"/>
<path d="M37.0625 100.102C37.1823 100.102 37.3203 100.109 37.4766 100.125C37.638 100.135 37.7682 100.151 37.8672 100.172L37.6875 102.406C37.6094 102.38 37.4974 102.362 37.3516 102.352C37.2109 102.336 37.0885 102.328 36.9844 102.328C36.6771 102.328 36.3776 102.367 36.0859 102.445C35.7995 102.523 35.5417 102.651 35.3125 102.828C35.0833 103 34.901 103.229 34.7656 103.516C34.6354 103.797 34.5703 104.143 34.5703 104.555V109H32.1875V100.266H33.9922L34.3438 101.734H34.4609C34.6328 101.438 34.8464 101.167 35.1016 100.922C35.362 100.672 35.6562 100.474 35.9844 100.328C36.3177 100.177 36.6771 100.102 37.0625 100.102Z" fill="#DDDDDD"/>
<path d="M41.8359 100.266V109H39.4531V100.266H41.8359ZM40.6484 96.8438C41.0026 96.8438 41.3073 96.9271 41.5625 97.0938C41.8177 97.2552 41.9453 97.5599 41.9453 98.0078C41.9453 98.4505 41.8177 98.7578 41.5625 98.9297C41.3073 99.0964 41.0026 99.1797 40.6484 99.1797C40.2891 99.1797 39.9818 99.0964 39.7266 98.9297C39.4766 98.7578 39.3516 98.4505 39.3516 98.0078C39.3516 97.5599 39.4766 97.2552 39.7266 97.0938C39.9818 96.9271 40.2891 96.8438 40.6484 96.8438Z" fill="#DDDDDD"/>
<path d="M48.0234 107.258C48.2839 107.258 48.5365 107.232 48.7812 107.18C49.0312 107.128 49.2786 107.062 49.5234 106.984V108.758C49.2682 108.872 48.9505 108.966 48.5703 109.039C48.1953 109.117 47.7839 109.156 47.3359 109.156C46.8151 109.156 46.3464 109.073 45.9297 108.906C45.5182 108.734 45.1927 108.44 44.9531 108.023C44.7188 107.602 44.6016 107.016 44.6016 106.266V102.055H43.4609V101.047L44.7734 100.25L45.4609 98.4062H46.9844V100.266H49.4297V102.055H46.9844V106.266C46.9844 106.599 47.0781 106.849 47.2656 107.016C47.4583 107.177 47.7109 107.258 48.0234 107.258Z" fill="#DDDDDD"/>
<path d="M59.2344 104.617C59.2344 105.346 59.1354 105.992 58.9375 106.555C58.7448 107.117 58.4609 107.594 58.0859 107.984C57.7161 108.37 57.2682 108.661 56.7422 108.859C56.2214 109.057 55.6328 109.156 54.9766 109.156C54.362 109.156 53.7969 109.057 53.2812 108.859C52.7708 108.661 52.3255 108.37 51.9453 107.984C51.5703 107.594 51.2786 107.117 51.0703 106.555C50.8672 105.992 50.7656 105.346 50.7656 104.617C50.7656 103.648 50.9375 102.828 51.2812 102.156C51.625 101.484 52.1146 100.974 52.75 100.625C53.3854 100.276 54.1432 100.102 55.0234 100.102C55.8411 100.102 56.5651 100.276 57.1953 100.625C57.8307 100.974 58.3281 101.484 58.6875 102.156C59.0521 102.828 59.2344 103.648 59.2344 104.617ZM53.1953 104.617C53.1953 105.19 53.2578 105.672 53.3828 106.062C53.5078 106.453 53.7031 106.747 53.9688 106.945C54.2344 107.143 54.5807 107.242 55.0078 107.242C55.4297 107.242 55.7708 107.143 56.0312 106.945C56.2969 106.747 56.4896 106.453 56.6094 106.062C56.7344 105.672 56.7969 105.19 56.7969 104.617C56.7969 104.039 56.7344 103.56 56.6094 103.18C56.4896 102.794 56.2969 102.505 56.0312 102.312C55.7656 102.12 55.4193 102.023 54.9922 102.023C54.362 102.023 53.9036 102.24 53.6172 102.672C53.3359 103.104 53.1953 103.753 53.1953 104.617Z" fill="#DDDDDD"/>
<path d="M72.2891 105.828C72.2891 106.505 72.125 107.094 71.7969 107.594C71.4688 108.094 70.9896 108.479 70.3594 108.75C69.7344 109.021 68.974 109.156 68.0781 109.156C67.6823 109.156 67.2943 109.13 66.9141 109.078C66.5391 109.026 66.1771 108.951 65.8281 108.852C65.4844 108.747 65.1562 108.62 64.8438 108.469V106.219C65.3854 106.458 65.9479 106.674 66.5312 106.867C67.1146 107.06 67.6927 107.156 68.2656 107.156C68.6615 107.156 68.9792 107.104 69.2188 107C69.4635 106.896 69.6406 106.753 69.75 106.57C69.8594 106.388 69.9141 106.18 69.9141 105.945C69.9141 105.659 69.8177 105.414 69.625 105.211C69.4323 105.008 69.1667 104.818 68.8281 104.641C68.4948 104.464 68.1172 104.273 67.6953 104.07C67.4297 103.945 67.1406 103.794 66.8281 103.617C66.5156 103.435 66.2188 103.214 65.9375 102.953C65.6562 102.693 65.4245 102.378 65.2422 102.008C65.0651 101.633 64.9766 101.185 64.9766 100.664C64.9766 99.9818 65.1328 99.3984 65.4453 98.9141C65.7578 98.4297 66.2031 98.0599 66.7812 97.8047C67.3646 97.5443 68.0521 97.4141 68.8438 97.4141C69.4375 97.4141 70.0026 97.4844 70.5391 97.625C71.0807 97.7604 71.6458 97.9583 72.2344 98.2188L71.4531 100.102C70.9271 99.888 70.4557 99.724 70.0391 99.6094C69.6224 99.4896 69.1979 99.4297 68.7656 99.4297C68.4635 99.4297 68.2057 99.4792 67.9922 99.5781C67.7786 99.6719 67.6172 99.8073 67.5078 99.9844C67.3984 100.156 67.3438 100.357 67.3438 100.586C67.3438 100.857 67.4219 101.086 67.5781 101.273C67.7396 101.456 67.9792 101.633 68.2969 101.805C68.6198 101.977 69.0208 102.177 69.5 102.406C70.0833 102.682 70.5807 102.971 70.9922 103.273C71.4089 103.57 71.7292 103.922 71.9531 104.328C72.1771 104.729 72.2891 105.229 72.2891 105.828Z" fill="#DDDDDD"/>
<path d="M77.75 100.086C78.9219 100.086 79.8203 100.341 80.4453 100.852C81.0703 101.362 81.3828 102.138 81.3828 103.18V109H79.7188L79.2578 107.812H79.1953C78.9453 108.125 78.6901 108.38 78.4297 108.578C78.1693 108.776 77.8698 108.922 77.5312 109.016C77.1927 109.109 76.7812 109.156 76.2969 109.156C75.7812 109.156 75.3177 109.057 74.9062 108.859C74.5 108.661 74.1797 108.359 73.9453 107.953C73.7109 107.542 73.5938 107.021 73.5938 106.391C73.5938 105.464 73.9193 104.781 74.5703 104.344C75.2214 103.901 76.1979 103.656 77.5 103.609L79.0156 103.562V103.18C79.0156 102.721 78.8958 102.385 78.6562 102.172C78.4167 101.958 78.0833 101.852 77.6562 101.852C77.2344 101.852 76.8203 101.911 76.4141 102.031C76.0078 102.151 75.6016 102.302 75.1953 102.484L74.4062 100.875C74.8698 100.63 75.388 100.438 75.9609 100.297C76.5391 100.156 77.1354 100.086 77.75 100.086ZM79.0156 104.953L78.0938 104.984C77.3229 105.005 76.7865 105.143 76.4844 105.398C76.1875 105.654 76.0391 105.99 76.0391 106.406C76.0391 106.771 76.1458 107.031 76.3594 107.188C76.5729 107.339 76.8516 107.414 77.1953 107.414C77.7057 107.414 78.1354 107.263 78.4844 106.961C78.8385 106.659 79.0156 106.229 79.0156 105.672V104.953Z" fill="#DDDDDD"/>
<path d="M88.8047 100.102C89.737 100.102 90.487 100.357 91.0547 100.867C91.6224 101.372 91.9062 102.185 91.9062 103.305V109H89.5234V103.898C89.5234 103.273 89.4089 102.802 89.1797 102.484C88.9557 102.167 88.6016 102.008 88.1172 102.008C87.388 102.008 86.8906 102.255 86.625 102.75C86.3594 103.245 86.2266 103.958 86.2266 104.891V109H83.8438V100.266H85.6641L85.9844 101.383H86.1172C86.3047 101.081 86.5365 100.836 86.8125 100.648C87.0938 100.461 87.4036 100.323 87.7422 100.234C88.0859 100.146 88.4401 100.102 88.8047 100.102Z" fill="#DDDDDD"/>
<path d="M98.0391 107.258C98.2995 107.258 98.5521 107.232 98.7969 107.18C99.0469 107.128 99.2943 107.062 99.5391 106.984V108.758C99.2839 108.872 98.9661 108.966 98.5859 109.039C98.2109 109.117 97.7995 109.156 97.3516 109.156C96.8307 109.156 96.362 109.073 95.9453 108.906C95.5339 108.734 95.2083 108.44 94.9688 108.023C94.7344 107.602 94.6172 107.016 94.6172 106.266V102.055H93.4766V101.047L94.7891 100.25L95.4766 98.4062H97V100.266H99.4453V102.055H97V106.266C97 106.599 97.0938 106.849 97.2812 107.016C97.474 107.177 97.7266 107.258 98.0391 107.258Z" fill="#DDDDDD"/>
<path d="M109.25 104.617C109.25 105.346 109.151 105.992 108.953 106.555C108.76 107.117 108.477 107.594 108.102 107.984C107.732 108.37 107.284 108.661 106.758 108.859C106.237 109.057 105.648 109.156 104.992 109.156C104.378 109.156 103.812 109.057 103.297 108.859C102.786 108.661 102.341 108.37 101.961 107.984C101.586 107.594 101.294 107.117 101.086 106.555C100.883 105.992 100.781 105.346 100.781 104.617C100.781 103.648 100.953 102.828 101.297 102.156C101.641 101.484 102.13 100.974 102.766 100.625C103.401 100.276 104.159 100.102 105.039 100.102C105.857 100.102 106.581 100.276 107.211 100.625C107.846 100.974 108.344 101.484 108.703 102.156C109.068 102.828 109.25 103.648 109.25 104.617ZM103.211 104.617C103.211 105.19 103.273 105.672 103.398 106.062C103.523 106.453 103.719 106.747 103.984 106.945C104.25 107.143 104.596 107.242 105.023 107.242C105.445 107.242 105.786 107.143 106.047 106.945C106.312 106.747 106.505 106.453 106.625 106.062C106.75 105.672 106.812 105.19 106.812 104.617C106.812 104.039 106.75 103.56 106.625 103.18C106.505 102.794 106.312 102.505 106.047 102.312C105.781 102.12 105.435 102.023 105.008 102.023C104.378 102.023 103.919 102.24 103.633 102.672C103.352 103.104 103.211 103.753 103.211 104.617Z" fill="#DDDDDD"/>
<path d="M114.602 105.688V103.734H118.797V105.688H114.602Z" fill="#DDDDDD"/>
<path d="M124.875 97.5781H128.43C129.951 97.5781 131.102 97.7917 131.883 98.2188C132.664 98.6458 133.055 99.3958 133.055 100.469C133.055 100.901 132.984 101.292 132.844 101.641C132.708 101.99 132.51 102.276 132.25 102.5C131.99 102.724 131.672 102.87 131.297 102.938V103.016C131.677 103.094 132.021 103.229 132.328 103.422C132.635 103.609 132.88 103.885 133.062 104.25C133.25 104.609 133.344 105.089 133.344 105.688C133.344 106.38 133.174 106.974 132.836 107.469C132.497 107.964 132.013 108.344 131.383 108.609C130.758 108.87 130.013 109 129.148 109H124.875V97.5781ZM127.297 102.102H128.703C129.406 102.102 129.893 101.992 130.164 101.773C130.435 101.549 130.57 101.221 130.57 100.789C130.57 100.352 130.409 100.039 130.086 99.8516C129.768 99.6589 129.263 99.5625 128.57 99.5625H127.297V102.102ZM127.297 104.023V107H128.875C129.604 107 130.112 106.859 130.398 106.578C130.685 106.297 130.828 105.919 130.828 105.445C130.828 105.164 130.766 104.917 130.641 104.703C130.516 104.49 130.305 104.323 130.008 104.203C129.716 104.083 129.312 104.023 128.797 104.023H127.297Z" fill="#DDDDDD"/>
<path d="M140.312 100.102C140.432 100.102 140.57 100.109 140.727 100.125C140.888 100.135 141.018 100.151 141.117 100.172L140.938 102.406C140.859 102.38 140.747 102.362 140.602 102.352C140.461 102.336 140.339 102.328 140.234 102.328C139.927 102.328 139.628 102.367 139.336 102.445C139.049 102.523 138.792 102.651 138.562 102.828C138.333 103 138.151 103.229 138.016 103.516C137.885 103.797 137.82 104.143 137.82 104.555V109H135.438V100.266H137.242L137.594 101.734H137.711C137.883 101.438 138.096 101.167 138.352 100.922C138.612 100.672 138.906 100.474 139.234 100.328C139.568 100.177 139.927 100.102 140.312 100.102Z" fill="#DDDDDD"/>
<path d="M146.281 100.086C147.453 100.086 148.352 100.341 148.977 100.852C149.602 101.362 149.914 102.138 149.914 103.18V109H148.25L147.789 107.812H147.727C147.477 108.125 147.221 108.38 146.961 108.578C146.701 108.776 146.401 108.922 146.062 109.016C145.724 109.109 145.312 109.156 144.828 109.156C144.312 109.156 143.849 109.057 143.438 108.859C143.031 108.661 142.711 108.359 142.477 107.953C142.242 107.542 142.125 107.021 142.125 106.391C142.125 105.464 142.451 104.781 143.102 104.344C143.753 103.901 144.729 103.656 146.031 103.609L147.547 103.562V103.18C147.547 102.721 147.427 102.385 147.188 102.172C146.948 101.958 146.615 101.852 146.188 101.852C145.766 101.852 145.352 101.911 144.945 102.031C144.539 102.151 144.133 102.302 143.727 102.484L142.938 100.875C143.401 100.63 143.919 100.438 144.492 100.297C145.07 100.156 145.667 100.086 146.281 100.086ZM147.547 104.953L146.625 104.984C145.854 105.005 145.318 105.143 145.016 105.398C144.719 105.654 144.57 105.99 144.57 106.406C144.57 106.771 144.677 107.031 144.891 107.188C145.104 107.339 145.383 107.414 145.727 107.414C146.237 107.414 146.667 107.263 147.016 106.961C147.37 106.659 147.547 106.229 147.547 105.672V104.953Z" fill="#DDDDDD"/>
<path d="M158.453 109H151.555V107.594L155.602 102.086H151.797V100.266H158.312V101.812L154.375 107.18H158.453V109Z" fill="#DDDDDD"/>
<path d="M162.57 100.266V109H160.188V100.266H162.57ZM161.383 96.8438C161.737 96.8438 162.042 96.9271 162.297 97.0938C162.552 97.2552 162.68 97.5599 162.68 98.0078C162.68 98.4505 162.552 98.7578 162.297 98.9297C162.042 99.0964 161.737 99.1797 161.383 99.1797C161.023 99.1797 160.716 99.0964 160.461 98.9297C160.211 98.7578 160.086 98.4505 160.086 98.0078C160.086 97.5599 160.211 97.2552 160.461 97.0938C160.716 96.9271 161.023 96.8438 161.383 96.8438Z" fill="#DDDDDD"/>
<path d="M167.461 109H165.078V96.8438H167.461V109Z" fill="#DDDDDD"/>
<path d="M7.19531 16.2344C5.89844 16.2344 4.79297 16 3.87891 15.5312C2.96484 15.0547 2.26953 14.3203 1.79297 13.3281C1.31641 12.3359 1.07812 11.0664 1.07812 9.51953C1.07812 7.91797 1.34766 6.61328 1.88672 5.60547C2.43359 4.58984 3.1875 3.84375 4.14844 3.36719C5.11719 2.89062 6.23828 2.65234 7.51172 2.65234C8.41797 2.65234 9.19922 2.74219 9.85547 2.92188C10.5195 3.09375 11.0977 3.30078 11.5898 3.54297L10.5352 6.30859C9.97266 6.08203 9.44922 5.89844 8.96484 5.75781C8.48047 5.60938 7.99609 5.53516 7.51172 5.53516C6.88672 5.53516 6.36719 5.68359 5.95312 5.98047C5.53906 6.26953 5.23047 6.70703 5.02734 7.29297C4.82422 7.87891 4.72266 8.61328 4.72266 9.49609C4.72266 10.3633 4.83203 11.082 5.05078 11.6523C5.26953 12.2227 5.58594 12.6484 6 12.9297C6.41406 13.2031 6.91797 13.3398 7.51172 13.3398C8.25391 13.3398 8.91406 13.2422 9.49219 13.0469C10.0703 12.8438 10.6328 12.5625 11.1797 12.2031V15.2617C10.6328 15.6055 10.0586 15.8516 9.45703 16C8.86328 16.1562 8.10938 16.2344 7.19531 16.2344Z" fill="#DDDDDD"/>
<path d="M26.1328 9.42578C26.1328 10.5195 25.9844 11.4883 25.6875 12.332C25.3984 13.1758 24.9727 13.8906 24.4102 14.4766C23.8555 15.0547 23.1836 15.4922 22.3945 15.7891C21.6133 16.0859 20.7305 16.2344 19.7461 16.2344C18.8242 16.2344 17.9766 16.0859 17.2031 15.7891C16.4375 15.4922 15.7695 15.0547 15.1992 14.4766C14.6367 13.8906 14.1992 13.1758 13.8867 12.332C13.582 11.4883 13.4297 10.5195 13.4297 9.42578C13.4297 7.97266 13.6875 6.74219 14.2031 5.73438C14.7188 4.72656 15.4531 3.96094 16.4062 3.4375C17.3594 2.91406 18.4961 2.65234 19.8164 2.65234C21.043 2.65234 22.1289 2.91406 23.0742 3.4375C24.0273 3.96094 24.7734 4.72656 25.3125 5.73438C25.8594 6.74219 26.1328 7.97266 26.1328 9.42578ZM17.0742 9.42578C17.0742 10.2852 17.168 11.0078 17.3555 11.5938C17.543 12.1797 17.8359 12.6211 18.2344 12.918C18.6328 13.2148 19.1523 13.3633 19.793 13.3633C20.4258 13.3633 20.9375 13.2148 21.3281 12.918C21.7266 12.6211 22.0156 12.1797 22.1953 11.5938C22.3828 11.0078 22.4766 10.2852 22.4766 9.42578C22.4766 8.55859 22.3828 7.83984 22.1953 7.26953C22.0156 6.69141 21.7266 6.25781 21.3281 5.96875C20.9297 5.67969 20.4102 5.53516 19.7695 5.53516C18.8242 5.53516 18.1367 5.85938 17.707 6.50781C17.2852 7.15625 17.0742 8.12891 17.0742 9.42578Z" fill="#DDDDDD"/>
<path d="M36.5273 2.65234C37.9258 2.65234 39.0508 3.03516 39.9023 3.80078C40.7539 4.55859 41.1797 5.77734 41.1797 7.45703V16H37.6055V8.34766C37.6055 7.41016 37.4336 6.70312 37.0898 6.22656C36.7539 5.75 36.2227 5.51172 35.4961 5.51172C34.4023 5.51172 33.6562 5.88281 33.2578 6.625C32.8594 7.36719 32.6602 8.4375 32.6602 9.83594V16H29.0859V2.89844H31.8164L32.2969 4.57422H32.4961C32.7773 4.12109 33.125 3.75391 33.5391 3.47266C33.9609 3.19141 34.4258 2.98438 34.9336 2.85156C35.4492 2.71875 35.9805 2.65234 36.5273 2.65234Z" fill="#DDDDDD"/>
<path d="M50.3789 13.3867C50.7695 13.3867 51.1484 13.3477 51.5156 13.2695C51.8906 13.1914 52.2617 13.0938 52.6289 12.9766V15.6367C52.2461 15.8086 51.7695 15.9492 51.1992 16.0586C50.6367 16.1758 50.0195 16.2344 49.3477 16.2344C48.5664 16.2344 47.8633 16.1094 47.2383 15.8594C46.6211 15.6016 46.1328 15.1602 45.7734 14.5352C45.4219 13.9023 45.2461 13.0234 45.2461 11.8984V5.58203H43.5352V4.07031L45.5039 2.875L46.5352 0.109375H48.8203V2.89844H52.4883V5.58203H48.8203V11.8984C48.8203 12.3984 48.9609 12.7734 49.2422 13.0234C49.5312 13.2656 49.9102 13.3867 50.3789 13.3867Z" fill="#DDDDDD"/>
<path d="M60.6562 2.62891C62.4141 2.62891 63.7617 3.01172 64.6992 3.77734C65.6367 4.54297 66.1055 5.70703 66.1055 7.26953V16H63.6094L62.918 14.2188H62.8242C62.4492 14.6875 62.0664 15.0703 61.6758 15.3672C61.2852 15.6641 60.8359 15.8828 60.3281 16.0234C59.8203 16.1641 59.2031 16.2344 58.4766 16.2344C57.7031 16.2344 57.0078 16.0859 56.3906 15.7891C55.7812 15.4922 55.3008 15.0391 54.9492 14.4297C54.5977 13.8125 54.4219 13.0312 54.4219 12.0859C54.4219 10.6953 54.9102 9.67188 55.8867 9.01562C56.8633 8.35156 58.3281 7.98438 60.2812 7.91406L62.5547 7.84375V7.26953C62.5547 6.58203 62.375 6.07812 62.0156 5.75781C61.6562 5.4375 61.1562 5.27734 60.5156 5.27734C59.8828 5.27734 59.2617 5.36719 58.6523 5.54688C58.043 5.72656 57.4336 5.95312 56.8242 6.22656L55.6406 3.8125C56.3359 3.44531 57.1133 3.15625 57.9727 2.94531C58.8398 2.73438 59.7344 2.62891 60.6562 2.62891ZM62.5547 9.92969L61.1719 9.97656C60.0156 10.0078 59.2109 10.2148 58.7578 10.5977C58.3125 10.9805 58.0898 11.4844 58.0898 12.1094C58.0898 12.6562 58.25 13.0469 58.5703 13.2812C58.8906 13.5078 59.3086 13.6211 59.8242 13.6211C60.5898 13.6211 61.2344 13.3945 61.7578 12.9414C62.2891 12.4883 62.5547 11.8438 62.5547 11.0078V9.92969Z" fill="#DDDDDD"/>
<path d="M75.1172 16.2344C73.8203 16.2344 72.7148 16 71.8008 15.5312C70.8867 15.0547 70.1914 14.3203 69.7148 13.3281C69.2383 12.3359 69 11.0664 69 9.51953C69 7.91797 69.2695 6.61328 69.8086 5.60547C70.3555 4.58984 71.1094 3.84375 72.0703 3.36719C73.0391 2.89062 74.1602 2.65234 75.4336 2.65234C76.3398 2.65234 77.1211 2.74219 77.7773 2.92188C78.4414 3.09375 79.0195 3.30078 79.5117 3.54297L78.457 6.30859C77.8945 6.08203 77.3711 5.89844 76.8867 5.75781C76.4023 5.60938 75.918 5.53516 75.4336 5.53516C74.8086 5.53516 74.2891 5.68359 73.875 5.98047C73.4609 6.26953 73.1523 6.70703 72.9492 7.29297C72.7461 7.87891 72.6445 8.61328 72.6445 9.49609C72.6445 10.3633 72.7539 11.082 72.9727 11.6523C73.1914 12.2227 73.5078 12.6484 73.9219 12.9297C74.3359 13.2031 74.8398 13.3398 75.4336 13.3398C76.1758 13.3398 76.8359 13.2422 77.4141 13.0469C77.9922 12.8438 78.5547 12.5625 79.1016 12.2031V15.2617C78.5547 15.6055 77.9805 15.8516 77.3789 16C76.7852 16.1562 76.0312 16.2344 75.1172 16.2344Z" fill="#DDDDDD"/>
<path d="M87.668 13.3867C88.0586 13.3867 88.4375 13.3477 88.8047 13.2695C89.1797 13.1914 89.5508 13.0938 89.918 12.9766V15.6367C89.5352 15.8086 89.0586 15.9492 88.4883 16.0586C87.9258 16.1758 87.3086 16.2344 86.6367 16.2344C85.8555 16.2344 85.1523 16.1094 84.5273 15.8594C83.9102 15.6016 83.4219 15.1602 83.0625 14.5352C82.7109 13.9023 82.5352 13.0234 82.5352 11.8984V5.58203H80.8242V4.07031L82.793 2.875L83.8242 0.109375H86.1094V2.89844H89.7773V5.58203H86.1094V11.8984C86.1094 12.3984 86.25 12.7734 86.5312 13.0234C86.8203 13.2656 87.1992 13.3867 87.668 13.3867Z" fill="#DDDDDD"/>
</svg>
