<svg width="50" height="50" viewBox="0 0 50 50" fill="none" xmlns="http://www.w3.org/2000/svg">
<path d="M24.9998 3.87708C13.3596 3.87708 3.8894 13.3528 3.8894 25C3.8894 36.6476 13.3596 46.1229 24.9998 46.1229C36.6403 46.1229 46.1109 36.6476 46.1109 25C46.1106 13.3528 36.64 3.87708 24.9998 3.87708ZM24.9998 44.0396C14.5076 44.0396 5.97154 35.4986 5.97154 25C5.97154 14.5017 14.5076 5.96041 24.9998 5.96041C35.492 5.96041 44.0288 14.5017 44.0288 25C44.0284 35.4986 35.492 44.0396 24.9998 44.0396Z" fill="#DDDDDD"/>
<path d="M34.4274 18.118C34.9125 17.8674 36.0744 17.1226 36.622 15.5239C36.622 15.5239 35.3022 16.4788 33.506 16.5913L33.4734 16.6094C32.5545 15.6059 31.2334 14.9764 29.7645 14.9764C26.9855 14.9764 24.733 17.2305 24.733 20.0111C24.733 20.433 24.7854 20.8427 24.8836 21.2344L24.8593 21.1979C24.8593 21.1979 19.47 21.5069 14.3893 15.9455C14.3893 15.9455 12.143 19.7653 15.9891 22.6864C15.1468 22.8267 13.6595 22.0684 13.6595 22.0684C13.6595 22.0684 13.7435 26.0844 17.7294 27.0677C17.0839 27.2364 15.8766 27.292 15.4838 27.1239C15.4838 27.1239 16.073 30.1851 20.1436 30.7191C19.105 31.309 17.1682 33.1062 12.7888 32.7691C12.7888 32.7691 15.9335 35.3528 21.7722 34.9882C27.6108 34.6236 31.8497 30.6906 33.5619 26.534C35.2741 22.3774 34.7977 20.0108 34.7977 20.0108C34.7977 20.0108 36.2284 19.2594 37.2119 17.4621C36.7576 17.5983 35.0729 18.0101 34.4458 18.1625C34.4395 18.1479 34.4333 18.133 34.4274 18.118Z" fill="#DDDDDD"/>
</svg>
