<svg width="40" height="40" viewBox="0 0 40 40" fill="none" xmlns="http://www.w3.org/2000/svg">
<path d="M19.9999 3.10167C10.6878 3.10167 3.11157 10.6822 3.11157 20C3.11157 29.3181 10.6878 36.8983 19.9999 36.8983C29.3123 36.8983 36.8888 29.3181 36.8888 20C36.8885 10.6822 29.312 3.10167 19.9999 3.10167ZM19.9999 35.2317C11.6061 35.2317 4.77728 28.3989 4.77728 20C4.77728 11.6014 11.6061 4.76833 19.9999 4.76833C28.3937 4.76833 35.2231 11.6014 35.2231 20C35.2228 28.3989 28.3937 35.2317 19.9999 35.2317Z" fill="#DDDDDD"/>
<path d="M27.5419 14.4944C27.93 14.2939 28.8595 13.6981 29.2976 12.4192C29.2976 12.4192 28.2418 13.1831 26.8049 13.2731L26.7788 13.2875C26.0436 12.4847 24.9867 11.9811 23.8116 11.9811C21.5884 11.9811 19.7864 13.7844 19.7864 16.0089C19.7864 16.3464 19.8283 16.6742 19.9069 16.9875L19.8875 16.9583C19.8875 16.9583 15.5761 17.2056 11.5115 12.7564C11.5115 12.7564 9.71443 15.8122 12.7913 18.1492C12.1175 18.2614 10.9276 17.6547 10.9276 17.6547C10.9276 17.6547 10.9948 20.8675 14.1835 21.6542C13.6672 21.7892 12.7013 21.8336 12.3871 21.6992C12.3871 21.6992 12.8585 24.1481 16.1149 24.5753C15.284 25.0472 13.7346 26.485 10.2311 26.2153C10.2311 26.2153 12.7469 28.2822 17.4178 27.9906C22.0887 27.6989 25.4798 24.5525 26.8496 21.2272C28.2193 17.9019 27.8382 16.0086 27.8382 16.0086C27.8382 16.0086 28.9828 15.4075 29.7695 13.9697C29.4061 14.0786 28.0583 14.4081 27.5566 14.53C27.5517 14.5183 27.5467 14.5064 27.5419 14.4944Z" fill="#DDDDDD"/>
</svg>
