<svg width="229" height="17" viewBox="0 0 229 17" fill="none" xmlns="http://www.w3.org/2000/svg">
<path d="M6.65625 13.1562C5.80729 13.1562 5.02344 13.013 4.30469 12.7266C3.59115 12.4349 2.96875 12.026 2.4375 11.5C1.91146 10.974 1.5026 10.3542 1.21094 9.64062C0.924479 8.92188 0.78125 8.13802 0.78125 7.28906C0.78125 6.47656 0.927083 5.71615 1.21875 5.00781C1.51562 4.29427 1.92969 3.66927 2.46094 3.13281C2.9974 2.59635 3.6224 2.17708 4.33594 1.875C5.04948 1.56771 5.82292 1.41406 6.65625 1.41406C7.46875 1.41406 8.22917 1.5599 8.9375 1.85156C9.65104 2.13802 10.276 2.54688 10.8125 3.07812C11.349 3.60417 11.7682 4.22396 12.0703 4.9375C12.3776 5.65104 12.5312 6.4349 12.5312 7.28906C12.5312 8.13802 12.3854 8.92188 12.0938 9.64062C11.8073 10.3542 11.3984 10.974 10.8672 11.5C10.3411 12.026 9.72135 12.4349 9.00781 12.7266C8.29427 13.013 7.51042 13.1562 6.65625 13.1562ZM6.89844 10.9531C5.8099 10.9531 4.99479 10.6172 4.45312 9.94531C3.91667 9.27344 3.64844 8.38802 3.64844 7.28906C3.64844 6.57552 3.77344 5.94531 4.02344 5.39844C4.27865 4.84635 4.65365 4.41406 5.14844 4.10156C5.64323 3.78385 6.2474 3.625 6.96094 3.625C7.28906 3.625 7.625 3.66667 7.96875 3.75C8.3125 3.83333 8.63281 3.95052 8.92969 4.10156L8.46094 5.17969C8.20052 5.04427 7.94271 4.9401 7.6875 4.86719C7.4375 4.79427 7.20052 4.75781 6.97656 4.75781C6.34635 4.75781 5.85677 4.98438 5.50781 5.4375C5.16406 5.88542 4.99219 6.5026 4.99219 7.28906C4.99219 8.10677 5.14323 8.73438 5.44531 9.17188C5.7526 9.60938 6.25781 9.82812 6.96094 9.82812C7.20573 9.82812 7.47917 9.79427 7.78125 9.72656C8.08854 9.65365 8.375 9.5651 8.64062 9.46094V10.5703C8.38542 10.6797 8.125 10.7708 7.85938 10.8438C7.59375 10.9167 7.27344 10.9531 6.89844 10.9531ZM6.65625 12.1328C7.3125 12.1328 7.92708 12.0156 8.5 11.7812C9.07292 11.5417 9.57812 11.2057 10.0156 10.7734C10.4531 10.3411 10.7943 9.83073 11.0391 9.24219C11.2839 8.64844 11.4062 7.9974 11.4062 7.28906C11.4062 6.6224 11.2865 5.99479 11.0469 5.40625C10.8073 4.81771 10.4714 4.29948 10.0391 3.85156C9.61198 3.40365 9.10938 3.05469 8.53125 2.80469C7.95833 2.54948 7.33333 2.42188 6.65625 2.42188C5.97396 2.42188 5.34115 2.54167 4.75781 2.78125C4.17969 3.02083 3.67448 3.35938 3.24219 3.79688C2.8099 4.22917 2.47396 4.74219 2.23438 5.33594C1.99479 5.92969 1.875 6.58073 1.875 7.28906C1.875 7.9974 1.99219 8.64844 2.22656 9.24219C2.46094 9.83073 2.79167 10.3411 3.21875 10.7734C3.64583 11.2057 4.15104 11.5417 4.73438 11.7812C5.31771 12.0156 5.95833 12.1328 6.65625 12.1328Z" fill="#DDDDDD"/>
<path d="M25.8984 13L25.0703 10.2812H20.9062L20.0781 13H17.4688L21.5 1.53125H24.4609L28.5078 13H25.8984ZM24.4922 8.25L23.6641 5.59375C23.612 5.41667 23.5417 5.1901 23.4531 4.91406C23.3698 4.63281 23.2839 4.34896 23.1953 4.0625C23.112 3.77083 23.0443 3.51823 22.9922 3.30469C22.9401 3.51823 22.8672 3.78385 22.7734 4.10156C22.6849 4.41406 22.599 4.71094 22.5156 4.99219C22.4323 5.27344 22.3724 5.47396 22.3359 5.59375L21.5156 8.25H24.4922Z" fill="#DDDDDD"/>
<path d="M32.1484 13H29.7656V0.84375H32.1484V13Z" fill="#DDDDDD"/>
<path d="M37.2109 16.8438C35.9922 16.8438 35.0599 16.6302 34.4141 16.2031C33.7734 15.7812 33.4531 15.1875 33.4531 14.4219C33.4531 13.8958 33.6172 13.4557 33.9453 13.1016C34.2734 12.7474 34.7552 12.4948 35.3906 12.3438C35.1458 12.2396 34.9323 12.0703 34.75 11.8359C34.5677 11.5964 34.4766 11.3438 34.4766 11.0781C34.4766 10.7448 34.5729 10.4688 34.7656 10.25C34.9583 10.026 35.237 9.80729 35.6016 9.59375C35.1432 9.39583 34.7786 9.07812 34.5078 8.64062C34.2422 8.20312 34.1094 7.6875 34.1094 7.09375C34.1094 6.45833 34.2474 5.91927 34.5234 5.47656C34.8047 5.02865 35.2109 4.6875 35.7422 4.45312C36.2786 4.21875 36.9297 4.10156 37.6953 4.10156C37.8568 4.10156 38.0443 4.11198 38.2578 4.13281C38.4714 4.15365 38.6667 4.17708 38.8438 4.20312C39.026 4.22917 39.1484 4.25 39.2109 4.26562H42.2578V5.47656L40.8906 5.82812C41.0156 6.02083 41.1094 6.22656 41.1719 6.44531C41.2344 6.66406 41.2656 6.89583 41.2656 7.14062C41.2656 8.07812 40.9375 8.8099 40.2812 9.33594C39.6302 9.85677 38.724 10.1172 37.5625 10.1172C37.2865 10.1016 37.026 10.0807 36.7812 10.0547C36.6615 10.1484 36.5703 10.2474 36.5078 10.3516C36.4453 10.4557 36.4141 10.5651 36.4141 10.6797C36.4141 10.7943 36.4609 10.8906 36.5547 10.9688C36.6536 11.0417 36.7995 11.099 36.9922 11.1406C37.1901 11.1771 37.4349 11.1953 37.7266 11.1953H39.2109C40.1693 11.1953 40.8984 11.401 41.3984 11.8125C41.9036 12.224 42.1562 12.8281 42.1562 13.625C42.1562 14.6458 41.7292 15.4375 40.875 16C40.026 16.5625 38.8047 16.8438 37.2109 16.8438ZM37.3125 15.2891C37.8802 15.2891 38.3672 15.2344 38.7734 15.125C39.1849 15.0208 39.5 14.8698 39.7188 14.6719C39.9375 14.4792 40.0469 14.2474 40.0469 13.9766C40.0469 13.7578 39.9818 13.5833 39.8516 13.4531C39.7266 13.3281 39.5339 13.2396 39.2734 13.1875C39.0182 13.1354 38.6901 13.1094 38.2891 13.1094H37.0547C36.763 13.1094 36.5 13.1562 36.2656 13.25C36.0365 13.3438 35.8542 13.474 35.7188 13.6406C35.5833 13.8125 35.5156 14.0104 35.5156 14.2344C35.5156 14.5625 35.6719 14.8203 35.9844 15.0078C36.3021 15.1953 36.7448 15.2891 37.3125 15.2891ZM37.6953 8.66406C38.1432 8.66406 38.4714 8.52604 38.6797 8.25C38.888 7.97396 38.9922 7.59896 38.9922 7.125C38.9922 6.59896 38.8828 6.20573 38.6641 5.94531C38.4505 5.67969 38.1276 5.54688 37.6953 5.54688C37.2578 5.54688 36.9297 5.67969 36.7109 5.94531C36.4922 6.20573 36.3828 6.59896 36.3828 7.125C36.3828 7.59896 36.4896 7.97396 36.7031 8.25C36.9219 8.52604 37.2526 8.66406 37.6953 8.66406Z" fill="#DDDDDD"/>
<path d="M51.7188 4.26562V13H49.8906L49.5703 11.8828H49.4453C49.2578 12.1797 49.0234 12.4219 48.7422 12.6094C48.4609 12.7969 48.151 12.9349 47.8125 13.0234C47.474 13.112 47.1224 13.1562 46.7578 13.1562C46.1328 13.1562 45.5885 13.0469 45.125 12.8281C44.6615 12.6042 44.2995 12.2578 44.0391 11.7891C43.7839 11.3203 43.6562 10.7109 43.6562 9.96094V4.26562H46.0391V9.36719C46.0391 9.99219 46.151 10.4635 46.375 10.7812C46.599 11.099 46.9557 11.2578 47.4453 11.2578C47.9297 11.2578 48.3099 11.1484 48.5859 10.9297C48.862 10.7057 49.0547 10.3802 49.1641 9.95312C49.2786 9.52083 49.3359 8.99479 49.3359 8.375V4.26562H51.7188Z" fill="#DDDDDD"/>
<path d="M59.1797 4.10156C60.112 4.10156 60.862 4.35677 61.4297 4.86719C61.9974 5.3724 62.2812 6.1849 62.2812 7.30469V13H59.8984V7.89844C59.8984 7.27344 59.7839 6.80208 59.5547 6.48438C59.3307 6.16667 58.9766 6.00781 58.4922 6.00781C57.763 6.00781 57.2656 6.25521 57 6.75C56.7344 7.24479 56.6016 7.95833 56.6016 8.89062V13H54.2188V4.26562H56.0391L56.3594 5.38281H56.4922C56.6797 5.08073 56.9115 4.83594 57.1875 4.64844C57.4688 4.46094 57.7786 4.32292 58.1172 4.23438C58.4609 4.14583 58.8151 4.10156 59.1797 4.10156Z" fill="#DDDDDD"/>
<path d="M70.8281 10.4062C70.8281 11 70.6875 11.5026 70.4062 11.9141C70.1302 12.3203 69.7161 12.6302 69.1641 12.8438C68.612 13.0521 67.9245 13.1562 67.1016 13.1562C66.4922 13.1562 65.9688 13.1172 65.5312 13.0391C65.099 12.9609 64.6615 12.8307 64.2188 12.6484V10.6797C64.6927 10.8932 65.2005 11.0703 65.7422 11.2109C66.2891 11.3464 66.7682 11.4141 67.1797 11.4141C67.6432 11.4141 67.974 11.3464 68.1719 11.2109C68.375 11.0703 68.4766 10.888 68.4766 10.6641C68.4766 10.5182 68.4349 10.388 68.3516 10.2734C68.2734 10.1536 68.1016 10.0208 67.8359 9.875C67.5703 9.72396 67.1536 9.52865 66.5859 9.28906C66.0391 9.0599 65.5885 8.82812 65.2344 8.59375C64.8854 8.35938 64.625 8.08333 64.4531 7.76562C64.2865 7.44271 64.2031 7.03385 64.2031 6.53906C64.2031 5.73177 64.5156 5.125 65.1406 4.71875C65.7708 4.30729 66.612 4.10156 67.6641 4.10156C68.2057 4.10156 68.7214 4.15625 69.2109 4.26562C69.7057 4.375 70.2135 4.54948 70.7344 4.78906L70.0156 6.50781C69.5833 6.32031 69.1745 6.16667 68.7891 6.04688C68.4089 5.92708 68.0208 5.86719 67.625 5.86719C67.276 5.86719 67.013 5.91406 66.8359 6.00781C66.6589 6.10156 66.5703 6.24479 66.5703 6.4375C66.5703 6.57812 66.6146 6.70312 66.7031 6.8125C66.7969 6.92188 66.974 7.04427 67.2344 7.17969C67.5 7.3099 67.888 7.47917 68.3984 7.6875C68.8932 7.89062 69.3229 8.10417 69.6875 8.32812C70.0521 8.54688 70.3333 8.82031 70.5312 9.14844C70.7292 9.47135 70.8281 9.89062 70.8281 10.4062Z" fill="#DDDDDD"/>
<path d="M79.6094 13.1562C78.6354 13.1562 77.8411 12.776 77.2266 12.0156C76.6172 11.25 76.3125 10.1276 76.3125 8.64844C76.3125 7.15365 76.6224 6.02344 77.2422 5.25781C77.862 4.48698 78.6719 4.10156 79.6719 4.10156C80.0885 4.10156 80.4557 4.15885 80.7734 4.27344C81.0911 4.38802 81.3646 4.54167 81.5938 4.73438C81.8281 4.92708 82.026 5.14323 82.1875 5.38281H82.2656C82.2344 5.21615 82.1953 4.97135 82.1484 4.64844C82.1068 4.32031 82.0859 3.98438 82.0859 3.64062V0.84375H84.4766V13H82.6484L82.1875 11.8672H82.0859C81.9349 12.1068 81.7448 12.3255 81.5156 12.5234C81.2917 12.7161 81.0234 12.8698 80.7109 12.9844C80.3984 13.099 80.0312 13.1562 79.6094 13.1562ZM80.4453 11.2578C81.0964 11.2578 81.5547 11.0651 81.8203 10.6797C82.0911 10.2891 82.2344 9.70312 82.25 8.92188V8.66406C82.25 7.8151 82.1198 7.16667 81.8594 6.71875C81.599 6.26562 81.1146 6.03906 80.4062 6.03906C79.8802 6.03906 79.4688 6.26562 79.1719 6.71875C78.875 7.17188 78.7266 7.82552 78.7266 8.67969C78.7266 9.53385 78.875 10.1771 79.1719 10.6094C79.474 11.0417 79.8984 11.2578 80.4453 11.2578Z" fill="#DDDDDD"/>
<path d="M89.3516 4.26562V13H86.9688V4.26562H89.3516ZM88.1641 0.84375C88.5182 0.84375 88.8229 0.927083 89.0781 1.09375C89.3333 1.25521 89.4609 1.5599 89.4609 2.00781C89.4609 2.45052 89.3333 2.75781 89.0781 2.92969C88.8229 3.09635 88.5182 3.17969 88.1641 3.17969C87.8047 3.17969 87.4974 3.09635 87.2422 2.92969C86.9922 2.75781 86.8672 2.45052 86.8672 2.00781C86.8672 1.5599 86.9922 1.25521 87.2422 1.09375C87.4974 0.927083 87.8047 0.84375 88.1641 0.84375Z" fill="#DDDDDD"/>
<path d="M96.7344 4.10156C96.8542 4.10156 96.9922 4.10938 97.1484 4.125C97.3099 4.13542 97.4401 4.15104 97.5391 4.17188L97.3594 6.40625C97.2812 6.38021 97.1693 6.36198 97.0234 6.35156C96.8828 6.33594 96.7604 6.32812 96.6562 6.32812C96.349 6.32812 96.0495 6.36719 95.7578 6.44531C95.4714 6.52344 95.2135 6.65104 94.9844 6.82812C94.7552 7 94.5729 7.22917 94.4375 7.51562C94.3073 7.79688 94.2422 8.14323 94.2422 8.55469V13H91.8594V4.26562H93.6641L94.0156 5.73438H94.1328C94.3047 5.4375 94.5182 5.16667 94.7734 4.92188C95.0339 4.67188 95.3281 4.47396 95.6562 4.32812C95.9896 4.17708 96.349 4.10156 96.7344 4.10156Z" fill="#DDDDDD"/>
<path d="M102.727 4.10156C103.534 4.10156 104.229 4.25781 104.812 4.57031C105.396 4.8776 105.846 5.32552 106.164 5.91406C106.482 6.5026 106.641 7.22135 106.641 8.07031V9.22656H101.008C101.034 9.89844 101.234 10.4271 101.609 10.8125C101.99 11.1927 102.516 11.3828 103.188 11.3828C103.745 11.3828 104.255 11.3255 104.719 11.2109C105.182 11.0964 105.659 10.9245 106.148 10.6953V12.5391C105.716 12.7526 105.263 12.9089 104.789 13.0078C104.32 13.1068 103.75 13.1562 103.078 13.1562C102.203 13.1562 101.427 12.9948 100.75 12.6719C100.078 12.349 99.5495 11.8568 99.1641 11.1953C98.7839 10.5339 98.5938 9.70052 98.5938 8.69531C98.5938 7.67448 98.7656 6.82552 99.1094 6.14844C99.4583 5.46615 99.9427 4.95573 100.562 4.61719C101.182 4.27344 101.904 4.10156 102.727 4.10156ZM102.742 5.79688C102.279 5.79688 101.893 5.94531 101.586 6.24219C101.284 6.53906 101.109 7.00521 101.062 7.64062H104.406C104.401 7.28646 104.336 6.97135 104.211 6.69531C104.091 6.41927 103.909 6.20052 103.664 6.03906C103.424 5.8776 103.117 5.79688 102.742 5.79688Z" fill="#DDDDDD"/>
<path d="M110.961 4.26562V13H108.578V4.26562H110.961ZM109.773 0.84375C110.128 0.84375 110.432 0.927083 110.688 1.09375C110.943 1.25521 111.07 1.5599 111.07 2.00781C111.07 2.45052 110.943 2.75781 110.688 2.92969C110.432 3.09635 110.128 3.17969 109.773 3.17969C109.414 3.17969 109.107 3.09635 108.852 2.92969C108.602 2.75781 108.477 2.45052 108.477 2.00781C108.477 1.5599 108.602 1.25521 108.852 1.09375C109.107 0.927083 109.414 0.84375 109.773 0.84375Z" fill="#DDDDDD"/>
<path d="M117.148 11.2578C117.409 11.2578 117.661 11.2318 117.906 11.1797C118.156 11.1276 118.404 11.0625 118.648 10.9844V12.7578C118.393 12.8724 118.076 12.9661 117.695 13.0391C117.32 13.1172 116.909 13.1562 116.461 13.1562C115.94 13.1562 115.471 13.0729 115.055 12.9062C114.643 12.7344 114.318 12.4401 114.078 12.0234C113.844 11.6016 113.727 11.0156 113.727 10.2656V6.05469H112.586V5.04688L113.898 4.25L114.586 2.40625H116.109V4.26562H118.555V6.05469H116.109V10.2656C116.109 10.599 116.203 10.849 116.391 11.0156C116.583 11.1771 116.836 11.2578 117.148 11.2578Z" fill="#DDDDDD"/>
<path d="M128.359 8.61719C128.359 9.34635 128.26 9.99219 128.062 10.5547C127.87 11.1172 127.586 11.5938 127.211 11.9844C126.841 12.3698 126.393 12.6615 125.867 12.8594C125.346 13.0573 124.758 13.1562 124.102 13.1562C123.487 13.1562 122.922 13.0573 122.406 12.8594C121.896 12.6615 121.451 12.3698 121.07 11.9844C120.695 11.5938 120.404 11.1172 120.195 10.5547C119.992 9.99219 119.891 9.34635 119.891 8.61719C119.891 7.64844 120.062 6.82812 120.406 6.15625C120.75 5.48438 121.24 4.97396 121.875 4.625C122.51 4.27604 123.268 4.10156 124.148 4.10156C124.966 4.10156 125.69 4.27604 126.32 4.625C126.956 4.97396 127.453 5.48438 127.812 6.15625C128.177 6.82812 128.359 7.64844 128.359 8.61719ZM122.32 8.61719C122.32 9.1901 122.383 9.67188 122.508 10.0625C122.633 10.4531 122.828 10.7474 123.094 10.9453C123.359 11.1432 123.706 11.2422 124.133 11.2422C124.555 11.2422 124.896 11.1432 125.156 10.9453C125.422 10.7474 125.615 10.4531 125.734 10.0625C125.859 9.67188 125.922 9.1901 125.922 8.61719C125.922 8.03906 125.859 7.5599 125.734 7.17969C125.615 6.79427 125.422 6.50521 125.156 6.3125C124.891 6.11979 124.544 6.02344 124.117 6.02344C123.487 6.02344 123.029 6.23958 122.742 6.67188C122.461 7.10417 122.32 7.7526 122.32 8.61719Z" fill="#DDDDDD"/>
<path d="M136.422 10.4062C136.422 11 136.281 11.5026 136 11.9141C135.724 12.3203 135.31 12.6302 134.758 12.8438C134.206 13.0521 133.518 13.1562 132.695 13.1562C132.086 13.1562 131.562 13.1172 131.125 13.0391C130.693 12.9609 130.255 12.8307 129.812 12.6484V10.6797C130.286 10.8932 130.794 11.0703 131.336 11.2109C131.883 11.3464 132.362 11.4141 132.773 11.4141C133.237 11.4141 133.568 11.3464 133.766 11.2109C133.969 11.0703 134.07 10.888 134.07 10.6641C134.07 10.5182 134.029 10.388 133.945 10.2734C133.867 10.1536 133.695 10.0208 133.43 9.875C133.164 9.72396 132.747 9.52865 132.18 9.28906C131.633 9.0599 131.182 8.82812 130.828 8.59375C130.479 8.35938 130.219 8.08333 130.047 7.76562C129.88 7.44271 129.797 7.03385 129.797 6.53906C129.797 5.73177 130.109 5.125 130.734 4.71875C131.365 4.30729 132.206 4.10156 133.258 4.10156C133.799 4.10156 134.315 4.15625 134.805 4.26562C135.299 4.375 135.807 4.54948 136.328 4.78906L135.609 6.50781C135.177 6.32031 134.768 6.16667 134.383 6.04688C134.003 5.92708 133.615 5.86719 133.219 5.86719C132.87 5.86719 132.607 5.91406 132.43 6.00781C132.253 6.10156 132.164 6.24479 132.164 6.4375C132.164 6.57812 132.208 6.70312 132.297 6.8125C132.391 6.92188 132.568 7.04427 132.828 7.17969C133.094 7.3099 133.482 7.47917 133.992 7.6875C134.487 7.89062 134.917 8.10417 135.281 8.32812C135.646 8.54688 135.927 8.82031 136.125 9.14844C136.323 9.47135 136.422 9.89062 136.422 10.4062Z" fill="#DDDDDD"/>
<path d="M147.312 4.10156C147.432 4.10156 147.57 4.10938 147.727 4.125C147.888 4.13542 148.018 4.15104 148.117 4.17188L147.938 6.40625C147.859 6.38021 147.747 6.36198 147.602 6.35156C147.461 6.33594 147.339 6.32812 147.234 6.32812C146.927 6.32812 146.628 6.36719 146.336 6.44531C146.049 6.52344 145.792 6.65104 145.562 6.82812C145.333 7 145.151 7.22917 145.016 7.51562C144.885 7.79688 144.82 8.14323 144.82 8.55469V13H142.438V4.26562H144.242L144.594 5.73438H144.711C144.883 5.4375 145.096 5.16667 145.352 4.92188C145.612 4.67188 145.906 4.47396 146.234 4.32812C146.568 4.17708 146.927 4.10156 147.312 4.10156Z" fill="#DDDDDD"/>
<path d="M153.305 4.10156C154.112 4.10156 154.807 4.25781 155.391 4.57031C155.974 4.8776 156.424 5.32552 156.742 5.91406C157.06 6.5026 157.219 7.22135 157.219 8.07031V9.22656H151.586C151.612 9.89844 151.812 10.4271 152.188 10.8125C152.568 11.1927 153.094 11.3828 153.766 11.3828C154.323 11.3828 154.833 11.3255 155.297 11.2109C155.76 11.0964 156.237 10.9245 156.727 10.6953V12.5391C156.294 12.7526 155.841 12.9089 155.367 13.0078C154.898 13.1068 154.328 13.1562 153.656 13.1562C152.781 13.1562 152.005 12.9948 151.328 12.6719C150.656 12.349 150.128 11.8568 149.742 11.1953C149.362 10.5339 149.172 9.70052 149.172 8.69531C149.172 7.67448 149.344 6.82552 149.688 6.14844C150.036 5.46615 150.521 4.95573 151.141 4.61719C151.76 4.27344 152.482 4.10156 153.305 4.10156ZM153.32 5.79688C152.857 5.79688 152.471 5.94531 152.164 6.24219C151.862 6.53906 151.688 7.00521 151.641 7.64062H154.984C154.979 7.28646 154.914 6.97135 154.789 6.69531C154.669 6.41927 154.487 6.20052 154.242 6.03906C154.003 5.8776 153.695 5.79688 153.32 5.79688Z" fill="#DDDDDD"/>
<path d="M165.25 10.4062C165.25 11 165.109 11.5026 164.828 11.9141C164.552 12.3203 164.138 12.6302 163.586 12.8438C163.034 13.0521 162.346 13.1562 161.523 13.1562C160.914 13.1562 160.391 13.1172 159.953 13.0391C159.521 12.9609 159.083 12.8307 158.641 12.6484V10.6797C159.115 10.8932 159.622 11.0703 160.164 11.2109C160.711 11.3464 161.19 11.4141 161.602 11.4141C162.065 11.4141 162.396 11.3464 162.594 11.2109C162.797 11.0703 162.898 10.888 162.898 10.6641C162.898 10.5182 162.857 10.388 162.773 10.2734C162.695 10.1536 162.523 10.0208 162.258 9.875C161.992 9.72396 161.576 9.52865 161.008 9.28906C160.461 9.0599 160.01 8.82812 159.656 8.59375C159.307 8.35938 159.047 8.08333 158.875 7.76562C158.708 7.44271 158.625 7.03385 158.625 6.53906C158.625 5.73177 158.938 5.125 159.562 4.71875C160.193 4.30729 161.034 4.10156 162.086 4.10156C162.628 4.10156 163.143 4.15625 163.633 4.26562C164.128 4.375 164.635 4.54948 165.156 4.78906L164.438 6.50781C164.005 6.32031 163.596 6.16667 163.211 6.04688C162.831 5.92708 162.443 5.86719 162.047 5.86719C161.698 5.86719 161.435 5.91406 161.258 6.00781C161.081 6.10156 160.992 6.24479 160.992 6.4375C160.992 6.57812 161.036 6.70312 161.125 6.8125C161.219 6.92188 161.396 7.04427 161.656 7.17969C161.922 7.3099 162.31 7.47917 162.82 7.6875C163.315 7.89062 163.745 8.10417 164.109 8.32812C164.474 8.54688 164.755 8.82031 164.953 9.14844C165.151 9.47135 165.25 9.89062 165.25 10.4062Z" fill="#DDDDDD"/>
<path d="M170.711 4.10156C171.518 4.10156 172.214 4.25781 172.797 4.57031C173.38 4.8776 173.831 5.32552 174.148 5.91406C174.466 6.5026 174.625 7.22135 174.625 8.07031V9.22656H168.992C169.018 9.89844 169.219 10.4271 169.594 10.8125C169.974 11.1927 170.5 11.3828 171.172 11.3828C171.729 11.3828 172.24 11.3255 172.703 11.2109C173.167 11.0964 173.643 10.9245 174.133 10.6953V12.5391C173.701 12.7526 173.247 12.9089 172.773 13.0078C172.305 13.1068 171.734 13.1562 171.062 13.1562C170.188 13.1562 169.411 12.9948 168.734 12.6719C168.062 12.349 167.534 11.8568 167.148 11.1953C166.768 10.5339 166.578 9.70052 166.578 8.69531C166.578 7.67448 166.75 6.82552 167.094 6.14844C167.443 5.46615 167.927 4.95573 168.547 4.61719C169.167 4.27344 169.888 4.10156 170.711 4.10156ZM170.727 5.79688C170.263 5.79688 169.878 5.94531 169.57 6.24219C169.268 6.53906 169.094 7.00521 169.047 7.64062H172.391C172.385 7.28646 172.32 6.97135 172.195 6.69531C172.076 6.41927 171.893 6.20052 171.648 6.03906C171.409 5.8776 171.102 5.79688 170.727 5.79688Z" fill="#DDDDDD"/>
<path d="M181.438 4.10156C181.557 4.10156 181.695 4.10938 181.852 4.125C182.013 4.13542 182.143 4.15104 182.242 4.17188L182.062 6.40625C181.984 6.38021 181.872 6.36198 181.727 6.35156C181.586 6.33594 181.464 6.32812 181.359 6.32812C181.052 6.32812 180.753 6.36719 180.461 6.44531C180.174 6.52344 179.917 6.65104 179.688 6.82812C179.458 7 179.276 7.22917 179.141 7.51562C179.01 7.79688 178.945 8.14323 178.945 8.55469V13H176.562V4.26562H178.367L178.719 5.73438H178.836C179.008 5.4375 179.221 5.16667 179.477 4.92188C179.737 4.67188 180.031 4.47396 180.359 4.32812C180.693 4.17708 181.052 4.10156 181.438 4.10156Z" fill="#DDDDDD"/>
<path d="M185.906 13L182.578 4.26562H185.07L186.758 9.24219C186.852 9.53385 186.924 9.84115 186.977 10.1641C187.034 10.487 187.073 10.776 187.094 11.0312H187.156C187.172 10.7552 187.208 10.4609 187.266 10.1484C187.328 9.83594 187.409 9.53385 187.508 9.24219L189.188 4.26562H191.68L188.352 13H185.906Z" fill="#DDDDDD"/>
<path d="M196.516 4.08594C197.688 4.08594 198.586 4.34115 199.211 4.85156C199.836 5.36198 200.148 6.13802 200.148 7.17969V13H198.484L198.023 11.8125H197.961C197.711 12.125 197.456 12.3802 197.195 12.5781C196.935 12.776 196.635 12.9219 196.297 13.0156C195.958 13.1094 195.547 13.1562 195.062 13.1562C194.547 13.1562 194.083 13.0573 193.672 12.8594C193.266 12.6615 192.945 12.3594 192.711 11.9531C192.477 11.5417 192.359 11.0208 192.359 10.3906C192.359 9.46354 192.685 8.78125 193.336 8.34375C193.987 7.90104 194.964 7.65625 196.266 7.60938L197.781 7.5625V7.17969C197.781 6.72135 197.661 6.38542 197.422 6.17188C197.182 5.95833 196.849 5.85156 196.422 5.85156C196 5.85156 195.586 5.91146 195.18 6.03125C194.773 6.15104 194.367 6.30208 193.961 6.48438L193.172 4.875C193.635 4.63021 194.154 4.4375 194.727 4.29688C195.305 4.15625 195.901 4.08594 196.516 4.08594ZM197.781 8.95312L196.859 8.98438C196.089 9.00521 195.552 9.14323 195.25 9.39844C194.953 9.65365 194.805 9.98958 194.805 10.4062C194.805 10.7708 194.911 11.0312 195.125 11.1875C195.339 11.3385 195.617 11.4141 195.961 11.4141C196.471 11.4141 196.901 11.263 197.25 10.9609C197.604 10.6589 197.781 10.2292 197.781 9.67188V8.95312Z" fill="#DDDDDD"/>
<path d="M205.375 13.1562C204.401 13.1562 203.607 12.776 202.992 12.0156C202.383 11.25 202.078 10.1276 202.078 8.64844C202.078 7.15365 202.388 6.02344 203.008 5.25781C203.628 4.48698 204.438 4.10156 205.438 4.10156C205.854 4.10156 206.221 4.15885 206.539 4.27344C206.857 4.38802 207.13 4.54167 207.359 4.73438C207.594 4.92708 207.792 5.14323 207.953 5.38281H208.031C208 5.21615 207.961 4.97135 207.914 4.64844C207.872 4.32031 207.852 3.98438 207.852 3.64062V0.84375H210.242V13H208.414L207.953 11.8672H207.852C207.701 12.1068 207.51 12.3255 207.281 12.5234C207.057 12.7161 206.789 12.8698 206.477 12.9844C206.164 13.099 205.797 13.1562 205.375 13.1562ZM206.211 11.2578C206.862 11.2578 207.32 11.0651 207.586 10.6797C207.857 10.2891 208 9.70312 208.016 8.92188V8.66406C208.016 7.8151 207.885 7.16667 207.625 6.71875C207.365 6.26562 206.88 6.03906 206.172 6.03906C205.646 6.03906 205.234 6.26562 204.938 6.71875C204.641 7.17188 204.492 7.82552 204.492 8.67969C204.492 9.53385 204.641 10.1771 204.938 10.6094C205.24 11.0417 205.664 11.2578 206.211 11.2578Z" fill="#DDDDDD"/>
<path d="M220.672 8.61719C220.672 9.34635 220.573 9.99219 220.375 10.5547C220.182 11.1172 219.898 11.5938 219.523 11.9844C219.154 12.3698 218.706 12.6615 218.18 12.8594C217.659 13.0573 217.07 13.1562 216.414 13.1562C215.799 13.1562 215.234 13.0573 214.719 12.8594C214.208 12.6615 213.763 12.3698 213.383 11.9844C213.008 11.5938 212.716 11.1172 212.508 10.5547C212.305 9.99219 212.203 9.34635 212.203 8.61719C212.203 7.64844 212.375 6.82812 212.719 6.15625C213.062 5.48438 213.552 4.97396 214.188 4.625C214.823 4.27604 215.581 4.10156 216.461 4.10156C217.279 4.10156 218.003 4.27604 218.633 4.625C219.268 4.97396 219.766 5.48438 220.125 6.15625C220.49 6.82812 220.672 7.64844 220.672 8.61719ZM214.633 8.61719C214.633 9.1901 214.695 9.67188 214.82 10.0625C214.945 10.4531 215.141 10.7474 215.406 10.9453C215.672 11.1432 216.018 11.2422 216.445 11.2422C216.867 11.2422 217.208 11.1432 217.469 10.9453C217.734 10.7474 217.927 10.4531 218.047 10.0625C218.172 9.67188 218.234 9.1901 218.234 8.61719C218.234 8.03906 218.172 7.5599 218.047 7.17969C217.927 6.79427 217.734 6.50521 217.469 6.3125C217.203 6.11979 216.857 6.02344 216.43 6.02344C215.799 6.02344 215.341 6.23958 215.055 6.67188C214.773 7.10417 214.633 7.7526 214.633 8.61719Z" fill="#DDDDDD"/>
<path d="M228.734 10.4062C228.734 11 228.594 11.5026 228.312 11.9141C228.036 12.3203 227.622 12.6302 227.07 12.8438C226.518 13.0521 225.831 13.1562 225.008 13.1562C224.398 13.1562 223.875 13.1172 223.438 13.0391C223.005 12.9609 222.568 12.8307 222.125 12.6484V10.6797C222.599 10.8932 223.107 11.0703 223.648 11.2109C224.195 11.3464 224.674 11.4141 225.086 11.4141C225.549 11.4141 225.88 11.3464 226.078 11.2109C226.281 11.0703 226.383 10.888 226.383 10.6641C226.383 10.5182 226.341 10.388 226.258 10.2734C226.18 10.1536 226.008 10.0208 225.742 9.875C225.477 9.72396 225.06 9.52865 224.492 9.28906C223.945 9.0599 223.495 8.82812 223.141 8.59375C222.792 8.35938 222.531 8.08333 222.359 7.76562C222.193 7.44271 222.109 7.03385 222.109 6.53906C222.109 5.73177 222.422 5.125 223.047 4.71875C223.677 4.30729 224.518 4.10156 225.57 4.10156C226.112 4.10156 226.628 4.15625 227.117 4.26562C227.612 4.375 228.12 4.54948 228.641 4.78906L227.922 6.50781C227.49 6.32031 227.081 6.16667 226.695 6.04688C226.315 5.92708 225.927 5.86719 225.531 5.86719C225.182 5.86719 224.919 5.91406 224.742 6.00781C224.565 6.10156 224.477 6.24479 224.477 6.4375C224.477 6.57812 224.521 6.70312 224.609 6.8125C224.703 6.92188 224.88 7.04427 225.141 7.17969C225.406 7.3099 225.794 7.47917 226.305 7.6875C226.799 7.89062 227.229 8.10417 227.594 8.32812C227.958 8.54688 228.24 8.82031 228.438 9.14844C228.635 9.47135 228.734 9.89062 228.734 10.4062Z" fill="#DDDDDD"/>
</svg>
