<svg width="300" height="277" viewBox="0 0 300 277" fill="none" xmlns="http://www.w3.org/2000/svg">
<rect width="300" height="277" fill="#F7F7F7"/>
<path d="M94.1211 126.51H99.377C99.2715 128.232 98.7969 129.762 97.9531 131.098C97.1211 132.434 95.9551 133.477 94.4551 134.227C92.9668 134.977 91.1738 135.352 89.0762 135.352C87.4355 135.352 85.9648 135.07 84.6641 134.508C83.3633 133.934 82.25 133.113 81.3242 132.047C80.4102 130.98 79.7129 129.691 79.2324 128.18C78.752 126.668 78.5117 124.975 78.5117 123.1V121.324C78.5117 119.449 78.7578 117.756 79.25 116.244C79.7539 114.721 80.4688 113.426 81.3945 112.359C82.332 111.293 83.4512 110.473 84.752 109.898C86.0527 109.324 87.5059 109.037 89.1113 109.037C91.2441 109.037 93.043 109.424 94.5078 110.197C95.9844 110.971 97.127 112.037 97.9355 113.396C98.7559 114.756 99.248 116.303 99.4121 118.037H94.1387C94.0801 117.006 93.875 116.133 93.5234 115.418C93.1719 114.691 92.6387 114.146 91.9238 113.783C91.2207 113.408 90.2832 113.221 89.1113 113.221C88.2324 113.221 87.4648 113.385 86.8086 113.713C86.1523 114.041 85.6016 114.539 85.1562 115.207C84.7109 115.875 84.377 116.719 84.1543 117.738C83.9434 118.746 83.8379 119.93 83.8379 121.289V123.1C83.8379 124.424 83.9375 125.59 84.1367 126.598C84.3359 127.594 84.6406 128.438 85.0508 129.129C85.4727 129.809 86.0117 130.324 86.668 130.676C87.3359 131.016 88.1387 131.186 89.0762 131.186C90.1777 131.186 91.0859 131.01 91.8008 130.658C92.5156 130.307 93.0605 129.785 93.4355 129.094C93.8223 128.402 94.0508 127.541 94.1211 126.51ZM123.863 121.605V122.818C123.863 124.764 123.6 126.51 123.072 128.057C122.545 129.604 121.801 130.922 120.84 132.012C119.879 133.09 118.73 133.916 117.395 134.49C116.07 135.064 114.6 135.352 112.982 135.352C111.377 135.352 109.906 135.064 108.57 134.49C107.246 133.916 106.098 133.09 105.125 132.012C104.152 130.922 103.396 129.604 102.857 128.057C102.33 126.51 102.066 124.764 102.066 122.818V121.605C102.066 119.648 102.33 117.902 102.857 116.367C103.385 114.82 104.129 113.502 105.09 112.412C106.062 111.322 107.211 110.49 108.535 109.916C109.871 109.342 111.342 109.055 112.947 109.055C114.564 109.055 116.035 109.342 117.359 109.916C118.695 110.49 119.844 111.322 120.805 112.412C121.777 113.502 122.527 114.82 123.055 116.367C123.594 117.902 123.863 119.648 123.863 121.605ZM118.537 122.818V121.57C118.537 120.211 118.414 119.016 118.168 117.984C117.922 116.953 117.559 116.086 117.078 115.383C116.598 114.68 116.012 114.152 115.32 113.801C114.629 113.438 113.838 113.256 112.947 113.256C112.057 113.256 111.266 113.438 110.574 113.801C109.895 114.152 109.314 114.68 108.834 115.383C108.365 116.086 108.008 116.953 107.762 117.984C107.516 119.016 107.393 120.211 107.393 121.57V122.818C107.393 124.166 107.516 125.361 107.762 126.404C108.008 127.436 108.371 128.309 108.852 129.023C109.332 129.727 109.918 130.26 110.609 130.623C111.301 130.986 112.092 131.168 112.982 131.168C113.873 131.168 114.664 130.986 115.355 130.623C116.047 130.26 116.627 129.727 117.096 129.023C117.564 128.309 117.922 127.436 118.168 126.404C118.414 125.361 118.537 124.166 118.537 122.818ZM130.068 109.406H134.533L141.107 128.197L147.682 109.406H152.146L142.9 135H139.314L130.068 109.406ZM127.66 109.406H132.107L132.916 127.723V135H127.66V109.406ZM150.107 109.406H154.572V135H149.299V127.723L150.107 109.406ZM164.803 109.406V135H159.547V109.406H164.803ZM190.572 109.406V135H185.299L175.016 117.844V135H169.742V109.406H175.016L185.316 126.58V109.406H190.572ZM215.445 121.623V131.766C215.047 132.246 214.432 132.768 213.6 133.33C212.768 133.881 211.695 134.355 210.383 134.754C209.07 135.152 207.482 135.352 205.619 135.352C203.967 135.352 202.461 135.082 201.102 134.543C199.742 133.992 198.57 133.189 197.586 132.135C196.613 131.08 195.863 129.791 195.336 128.268C194.809 126.732 194.545 124.98 194.545 123.012V121.412C194.545 119.443 194.797 117.691 195.301 116.156C195.816 114.621 196.549 113.326 197.498 112.271C198.447 111.217 199.578 110.414 200.891 109.863C202.203 109.312 203.662 109.037 205.268 109.037C207.494 109.037 209.322 109.4 210.752 110.127C212.182 110.842 213.271 111.838 214.021 113.115C214.783 114.381 215.252 115.834 215.428 117.475H210.312C210.184 116.607 209.938 115.852 209.574 115.207C209.211 114.562 208.689 114.059 208.01 113.695C207.342 113.332 206.475 113.15 205.408 113.15C204.529 113.15 203.744 113.332 203.053 113.695C202.373 114.047 201.799 114.568 201.33 115.26C200.861 115.951 200.504 116.807 200.258 117.826C200.012 118.846 199.889 120.029 199.889 121.377V123.012C199.889 124.348 200.018 125.531 200.275 126.562C200.533 127.582 200.914 128.443 201.418 129.146C201.934 129.838 202.566 130.359 203.316 130.711C204.066 131.062 204.939 131.238 205.936 131.238C206.768 131.238 207.459 131.168 208.01 131.027C208.572 130.887 209.023 130.717 209.363 130.518C209.715 130.307 209.984 130.107 210.172 129.92V125.385H205.355V121.623H215.445ZM110.539 170.303C110.539 169.846 110.469 169.436 110.328 169.072C110.199 168.697 109.953 168.357 109.59 168.053C109.227 167.736 108.717 167.426 108.061 167.121C107.404 166.816 106.555 166.5 105.512 166.172C104.352 165.797 103.25 165.375 102.207 164.906C101.176 164.438 100.262 163.893 99.4648 163.271C98.6797 162.639 98.0586 161.906 97.6016 161.074C97.1562 160.242 96.9336 159.275 96.9336 158.174C96.9336 157.107 97.168 156.141 97.6367 155.273C98.1055 154.395 98.7617 153.645 99.6055 153.023C100.449 152.391 101.445 151.904 102.594 151.564C103.754 151.225 105.025 151.055 106.408 151.055C108.295 151.055 109.941 151.395 111.348 152.074C112.754 152.754 113.844 153.686 114.617 154.869C115.402 156.053 115.795 157.406 115.795 158.93H110.557C110.557 158.18 110.398 157.523 110.082 156.961C109.777 156.387 109.309 155.936 108.676 155.607C108.055 155.279 107.27 155.115 106.32 155.115C105.406 155.115 104.645 155.256 104.035 155.537C103.426 155.807 102.969 156.176 102.664 156.645C102.359 157.102 102.207 157.617 102.207 158.191C102.207 158.625 102.312 159.018 102.523 159.369C102.746 159.721 103.074 160.049 103.508 160.354C103.941 160.658 104.475 160.945 105.107 161.215C105.74 161.484 106.473 161.748 107.305 162.006C108.699 162.428 109.924 162.902 110.979 163.43C112.045 163.957 112.936 164.549 113.65 165.205C114.365 165.861 114.904 166.605 115.268 167.438C115.631 168.27 115.812 169.213 115.812 170.268C115.812 171.381 115.596 172.377 115.162 173.256C114.729 174.135 114.102 174.879 113.281 175.488C112.461 176.098 111.482 176.561 110.346 176.877C109.209 177.193 107.938 177.352 106.531 177.352C105.266 177.352 104.018 177.188 102.787 176.859C101.557 176.52 100.438 176.01 99.4297 175.33C98.4336 174.65 97.6367 173.783 97.0391 172.729C96.4414 171.674 96.1426 170.426 96.1426 168.984H101.434C101.434 169.781 101.557 170.455 101.803 171.006C102.049 171.557 102.395 172.002 102.84 172.342C103.297 172.682 103.836 172.928 104.457 173.08C105.09 173.232 105.781 173.309 106.531 173.309C107.445 173.309 108.195 173.18 108.781 172.922C109.379 172.664 109.818 172.307 110.1 171.85C110.393 171.393 110.539 170.877 110.539 170.303ZM140.422 163.605V164.818C140.422 166.764 140.158 168.51 139.631 170.057C139.104 171.604 138.359 172.922 137.398 174.012C136.438 175.09 135.289 175.916 133.953 176.49C132.629 177.064 131.158 177.352 129.541 177.352C127.936 177.352 126.465 177.064 125.129 176.49C123.805 175.916 122.656 175.09 121.684 174.012C120.711 172.922 119.955 171.604 119.416 170.057C118.889 168.51 118.625 166.764 118.625 164.818V163.605C118.625 161.648 118.889 159.902 119.416 158.367C119.943 156.82 120.688 155.502 121.648 154.412C122.621 153.322 123.77 152.49 125.094 151.916C126.43 151.342 127.9 151.055 129.506 151.055C131.123 151.055 132.594 151.342 133.918 151.916C135.254 152.49 136.402 153.322 137.363 154.412C138.336 155.502 139.086 156.82 139.613 158.367C140.152 159.902 140.422 161.648 140.422 163.605ZM135.096 164.818V163.57C135.096 162.211 134.973 161.016 134.727 159.984C134.48 158.953 134.117 158.086 133.637 157.383C133.156 156.68 132.57 156.152 131.879 155.801C131.188 155.438 130.396 155.256 129.506 155.256C128.615 155.256 127.824 155.438 127.133 155.801C126.453 156.152 125.873 156.68 125.393 157.383C124.924 158.086 124.566 158.953 124.32 159.984C124.074 161.016 123.951 162.211 123.951 163.57V164.818C123.951 166.166 124.074 167.361 124.32 168.404C124.566 169.436 124.93 170.309 125.41 171.023C125.891 171.727 126.477 172.26 127.168 172.623C127.859 172.986 128.65 173.168 129.541 173.168C130.432 173.168 131.223 172.986 131.914 172.623C132.605 172.26 133.186 171.727 133.654 171.023C134.123 170.309 134.48 169.436 134.727 168.404C134.973 167.361 135.096 166.166 135.096 164.818ZM165.242 163.605V164.818C165.242 166.764 164.979 168.51 164.451 170.057C163.924 171.604 163.18 172.922 162.219 174.012C161.258 175.09 160.109 175.916 158.773 176.49C157.449 177.064 155.979 177.352 154.361 177.352C152.756 177.352 151.285 177.064 149.949 176.49C148.625 175.916 147.477 175.09 146.504 174.012C145.531 172.922 144.775 171.604 144.236 170.057C143.709 168.51 143.445 166.764 143.445 164.818V163.605C143.445 161.648 143.709 159.902 144.236 158.367C144.764 156.82 145.508 155.502 146.469 154.412C147.441 153.322 148.59 152.49 149.914 151.916C151.25 151.342 152.721 151.055 154.326 151.055C155.943 151.055 157.414 151.342 158.738 151.916C160.074 152.49 161.223 153.322 162.184 154.412C163.156 155.502 163.906 156.82 164.434 158.367C164.973 159.902 165.242 161.648 165.242 163.605ZM159.916 164.818V163.57C159.916 162.211 159.793 161.016 159.547 159.984C159.301 158.953 158.938 158.086 158.457 157.383C157.977 156.68 157.391 156.152 156.699 155.801C156.008 155.438 155.217 155.256 154.326 155.256C153.436 155.256 152.645 155.438 151.953 155.801C151.273 156.152 150.693 156.68 150.213 157.383C149.744 158.086 149.387 158.953 149.141 159.984C148.895 161.016 148.771 162.211 148.771 163.57V164.818C148.771 166.166 148.895 167.361 149.141 168.404C149.387 169.436 149.75 170.309 150.23 171.023C150.711 171.727 151.297 172.26 151.988 172.623C152.68 172.986 153.471 173.168 154.361 173.168C155.252 173.168 156.043 172.986 156.734 172.623C157.426 172.26 158.006 171.727 158.475 171.023C158.943 170.309 159.301 169.436 159.547 168.404C159.793 167.361 159.916 166.166 159.916 164.818ZM189.869 151.406V177H184.596L174.312 159.844V177H169.039V151.406H174.312L184.613 168.58V151.406H189.869Z" fill="#202020"/>
</svg>
